<?xml version="1.0" encoding="utf-8"?>
<!-- Generator: Adobe Illustrator 19.1.0, SVG Export Plug-In . SVG Version: 6.00 Build 0)  -->
<svg version="1.1" id="Layer_1" xmlns="http://www.w3.org/2000/svg" xmlns:xlink="http://www.w3.org/1999/xlink" x="0px" y="0px"
	 viewBox="0 0 1200 400" style="enable-background:new 0 0 1200 400;" xml:space="preserve">
<style type="text/css">
	.st0{fill:none;}
	.st1{fill:#D1D3D4;}
	.st2{fill:#0C1428;}
	.st3{fill:#B0B1B2;}
	.st4{fill:#DCE0E0;}
	.st5{fill:none;stroke:#51868E;stroke-width:3;stroke-miterlimit:10;}
	.st6{fill:#7F969F;}
	.st7{fill:#1ABC9C;}
	.st8{fill:#FFFFFF;}
	.st9{fill:#BDC3C7;}
	.st10{fill:#464646;}
	.st11{fill:#ECF0F1;}
	.st12{fill:url(#SVGID_1_);}
	.st13{fill:#34495E;}
	.st14{fill:#7F8C8D;}
	.st15{fill:#FEC011;}
	.st16{fill:#F6871F;}
	.st17{fill:#FFFFFF;stroke:#1ABC9C;stroke-width:1.5;stroke-miterlimit:10;}
	.st18{fill:#FFF200;}
	.st19{clip-path:url(#SVGID_3_);fill:#F6871F;}
</style>
<g>
	<rect class="st0" width="400" height="400"/>
	<rect x="400" class="st0" width="400" height="400"/>
	<rect x="800" class="st0" width="400" height="400"/>
	<g>
		<g>
			<path class="st1" d="M61.1,230.3v14.1c0,6.2,5,11.1,11.1,11.1h203.5c6.2,0,11.1-5,11.1-11.1v-14.1H61.1z"/>
			<path class="st2" d="M286.9,239.9V121.1c0-6.2-5-11.1-11.1-11.1H72.3c-6.2,0-11.1,5-11.1,11.1v118.8H286.9z"/>
			
				<image style="overflow:visible;" width="204" height="111" xlink:href="1E37C6B9809D9A3E.png"  transform="matrix(1 0 0 1 71.8962 119.4336)">
			</image>
			<path class="st3" d="M215.4,287.3c-3.7-2.2-15.9-9.1-15.8-19.8c0-3,0-11.9,0-11.9h-51.2c0,0,0,9,0,11.9
				c0.1,10.8-12.1,17.6-15.8,19.8c-1.6,1-1.2,2.7-1.2,2.7h85C216.5,290,217,288.3,215.4,287.3z"/>
			
				<image style="overflow:visible;" width="204" height="12" xlink:href="1E37C6B9809D9A42.png"  transform="matrix(1 0 0 1 71.8962 119.4336)">
			</image>
			<g>
				<rect x="72.3" y="131" class="st4" width="203.4" height="54.7"/>
				<polyline class="st5" points="226.1,169 233.8,159.8 226.1,150.6 				"/>
				<polyline class="st5" points="124.1,169 116.3,159.8 124.1,150.6 				"/>
				<path class="st6" d="M174,135.5c-18.5,0-33.5,15-33.5,33.5c0,6.1,1.6,11.8,4.5,16.7h5.3c-3.3-4.7-5.3-10.5-5.3-16.7
					c0-1.4,0.1-2.7,0.3-4c0.3,1.1,1.1,2.5,2.3,2.6c1.4,0.2,2.3,1.5,2.3,2.2c0,0.7,1.7,1.7,1.9,2.8c0.2,1.1,1.5,0.7,1.5,0.7
					s-1,3.4-1,4.2c0,0.8,2.2,5.7,4.2,7.9c0,0.1,0.1,0.1,0.1,0.2h12.9c0.3-1.4,0.8-3.3,1.3-4.4c0.7-1.5-1.3-1.9-3-2.2
					c-1.7-0.3-3-2.2-3-3.7c0-1.5-2.7-1.7-3.2-2.8c-0.5-1.1-2.7-1.5-2.7-1.5s-1.9-0.8-2.6-1.2c-0.8-0.3-2.8,2.6-2.8,2.6
					s-1.2-0.8-1.9-1.1c-0.7-0.3-0.3-2.2-0.5-2.9c-0.2-0.7-1-1.2-1-2c0-0.8,0.3-1.5-0.2-1.5c-0.5,0-1,1.5-1.9,1.5
					c-0.8,0-0.2-1.2,0-2.9c0.2-1.7,2.4-3.4,2.4-3.4s1.7,1.2,1.7,1.5c0,0.3,1,0.8,1,0c0-0.8-1-2.7,0.5-3.2c1.5-0.5,2.8-4.2,2.8-4.2
					l4.1-1.9l1-1.5c0,0,2,0,2.9,0c0.8,0,0-1.5,0-1.5s-1.3-2.1-2.4-2.9c-1-0.8-3.7-0.8-3.7-0.8s-0.8,3.4-2.1,3.7
					c-1.1,0.3-1.7-0.9-1.9-1.8c0.9-0.9,2-1.7,3-2.4c0.2,0,0.3,0,0.5,0.1c1.2,0.3,2.7,0,2.7,0s1.7-0.3,2.5-1.6
					c0.8-1.3,1.3-1.6,1.3-1.6H163c1.3-0.5,2.6-1,4-1.3c0.2,0.3,0.3,0.7,0.3,1.3c0.2,3.2,4.4,4.7,5.5,4.1c1.2-0.7-1-1.8,1.4-3
					c2.1-1.1,3-1.9,4.1-2.9c3,0.4,5.8,1.3,8.4,2.6c-0.5,0.4-1,0.9-1.6,1.1c-1.2,0.5-1.8,0.2-1.4,0.9c0.4,0.7,1.3,1.4,1.9,1.1
					c0.6-0.2,1.1,0.1,1.3,0.5c0.2,0.4,0.7,1.2,1.2,0.8c0.5-0.4,0.9-1.1,0.8-1.5c-0.1-0.4-0.7-0.8,0-1.6c0.1-0.1,0.1-0.1,0.2-0.2
					c0.1,0.1,0.2,0.1,0.3,0.2c-0.2,0.1-0.3,0.2,0,0.5c0.6,0.5,2.1,1.1,2.1,1.1s0,0.9-1.1,1.4c-1.1,0.5-1.9,1-3.2,0.7
					c-1.3-0.3-1.2-0.4-1.4-1.1c-0.2-0.6-0.5,0.1-0.5,0.5c0,0.4-0.1,0.5-0.8,1c-0.7,0.5-1.3,1.1-1.9,1.4c-0.6,0.2-2.5,0.1-1.8,0.7
					c0.7,0.5,1.4,0.2,1.2,1.1c-0.2,0.9-0.4,1.3-1.6,1.2c-1.1-0.2-1.9,1-1.8,1.6c0.1,0.6,0.1,1.6,0.9,1.6c0.6,0,0.8,0.3,0.9,0.4
					c0-0.1,0.1-0.2,0.7-0.2c1,0,1.9-0.5,1.9-1.2c0.1-0.6,0.4-1.6,1-1.9c0.6-0.3,0.8-0.4,1.5-0.3c0.8,0,1-0.4,1.5-0.2
					c0.5,0.3,2,1.4,2.3,1.7c0.3,0.4,0.7,1,0.4,1.3c-0.3,0.3,0.5-0.5,0.5-0.5l0-0.6l0.4,0.1c0,0-2.1-1.4-2.4-1.9
					c-0.3-0.4-0.7-0.8-0.4-0.9c0.3-0.1,0.7,0.3,1.1,0.6c0.3,0.3,1.7,1,2,1.3c0.3,0.3,0.3,0.8,0.7,1.2c0.5,0.4,0.4,1.4,0.8,1.4
					c0.4,0,0.5-0.6,0.7-0.6c0.2,0-1.3-1.2-0.1-1.2c1.2,0,1.6,1.4,2,1.8c0.4,0.3,0.8,0.5,2.1,0.7c1.3,0.1,1.1,1.4,0.7,1.7
					c-0.4,0.3-2.1,0.8-2.8,0.7c-0.7-0.1-2.4-1.3-2.7-0.8c-0.3,0.4,0,1.3-0.8,0.9c-0.8-0.4-1.8-1-2.8-1.3c-1-0.3-1.3-0.3-1.1-0.8
					c0.2-0.5,1.6-1.2,0-1.3c-1.7,0-4,0.2-4.9,0.5c-0.9,0.4-1.9,0.3-1.9,0.3l-0.6,0.3c-2.9,2.2-3.9,5.1-3.9,6.6c0,1.5-0.5,3.4,0,5.6
					c0.5,2.2,1,3.2,2.7,4.1c1.7,0.8,5.4,0.7,7.4,0.8c2,0.2,2.2-1,2.2,1.5c0,2.5,0.7,4.6,1,6.4c0.3,1.6,0.2,1.5,0.1,3.3h13.4
					c2.8-4.9,4.5-10.6,4.5-16.7C207.5,150.5,192.5,135.5,174,135.5z M200.6,166c0,0,1.1,2.1,1.2,2.7c0.2,0.5,0,1.3,0.4,1.2
					c0.1,0,0.4-0.2,0.8-0.5c0,0.5,0,1-0.1,1.5c-0.3,0.1-0.6,0.1-0.7,0c-1.7-2.2-3.3-5.5-4-7.4c-1-2.9-0.4-2.3-0.1-1.6
					C198.2,161.7,199.2,162.1,200.6,166z"/>
			</g>
			<rect x="122.8" y="188.9" class="st7" width="102.4" height="38.8"/>
			<path class="st8" d="M192.4,209.7c0,3-0.4,6-0.4,6s-0.4,2.5-1.5,3.6c-1.4,1.5-3,1.5-3.7,1.5c-5.2,0.4-12.9,0.4-12.9,0.4
				s-9.6-0.1-12.5-0.4c-0.8-0.1-2.7-0.1-4.1-1.6c-1.1-1.1-1.5-3.6-1.5-3.6s-0.4-3-0.4-6v-2.8c0-2.9,0.4-5.9,0.4-5.9s0.4-2.5,1.5-3.6
				c1.4-1.5,3-1.5,3.7-1.5c5.2-0.4,12.9-0.4,12.9-0.4s7.7,0,12.9,0.4c0.7,0.1,2.3,0.1,3.7,1.5c1.1,1.1,1.5,3.6,1.5,3.6s0.4,3,0.4,6
				V209.7z M170.2,213.1l9.9-5.2l-9.9-5.2V213.1z"/>
		</g>
		<g>
			<path class="st9" d="M365.9,279.9c0,5.6-4.5,10.1-10.1,10.1h-95.1c-5.6,0-10.1-4.5-10.1-10.1V141.1c0-5.6,4.5-10.1,10.1-10.1
				h95.1c5.6,0,10.1,4.5,10.1,10.1V279.9z"/>
			<path class="st10" d="M314.1,280.9c0,1.9-1.5,3.4-3.4,3.4h-5c-1.9,0-3.4-1.5-3.4-3.4v-5c0-1.9,1.5-3.4,3.4-3.4h5
				c1.9,0,3.4,1.5,3.4,3.4V280.9z"/>
			<rect x="257.4" y="143.6" class="st8" width="101.7" height="123.8"/>
			
				<image style="overflow:visible;" width="103" height="6" xlink:href="1E37C6B9809D9A45.png"  transform="matrix(1 0 0 1 256.8962 143.4336)">
			</image>
			<g>
				<g>
					<rect x="271.1" y="251.9" class="st9" width="21.5" height="2.1"/>
					<rect x="271.1" y="255.5" class="st9" width="21.5" height="2.1"/>
					<rect x="271.1" y="259.1" class="st9" width="11" height="2.1"/>
					<rect x="271.1" y="228.3" class="st9" width="21.5" height="20.7"/>
				</g>
				<g>
					<rect x="297.5" y="251.9" class="st9" width="21.5" height="2.1"/>
					<rect x="297.5" y="255.5" class="st9" width="21.5" height="2.1"/>
					<rect x="297.5" y="259.1" class="st9" width="11" height="2.1"/>
					<rect x="297.5" y="228.3" class="st9" width="21.5" height="20.7"/>
				</g>
				<g>
					<rect x="323.9" y="251.9" class="st9" width="21.5" height="2.1"/>
					<rect x="323.9" y="255.5" class="st9" width="21.5" height="2.1"/>
					<rect x="323.9" y="259.1" class="st9" width="11" height="2.1"/>
					<rect x="323.9" y="228.3" class="st9" width="21.5" height="20.7"/>
				</g>
			</g>
			<g>
				<rect x="257.4" y="149.2" class="st4" width="101.7" height="27.3"/>
				<polyline class="st5" points="334.3,168.2 338.1,163.6 334.3,159 				"/>
				<polyline class="st5" points="283.3,168.2 279.4,163.6 283.3,159 				"/>
				<path class="st6" d="M308.2,151.4c-9.2,0-16.7,7.5-16.7,16.7c0,3,0.8,5.9,2.2,8.3h2.7c-1.7-2.4-2.6-5.2-2.6-8.3
					c0-0.7,0-1.3,0.1-2c0.2,0.5,0.6,1.2,1.1,1.3c0.7,0.1,1.1,0.8,1.1,1.1c0,0.3,0.8,0.8,0.9,1.4c0.1,0.6,0.8,0.4,0.8,0.4
					s-0.5,1.7-0.5,2.1c0,0.4,1.1,2.9,2.1,4c0,0,0,0.1,0.1,0.1h6.4c0.1-0.7,0.4-1.7,0.7-2.2c0.3-0.8-0.7-0.9-1.5-1.1
					c-0.8-0.2-1.5-1.1-1.5-1.9c0-0.8-1.4-0.8-1.6-1.4c-0.3-0.5-1.3-0.7-1.3-0.7s-0.9-0.4-1.3-0.6c-0.4-0.2-1.4,1.3-1.4,1.3
					s-0.6-0.4-0.9-0.6c-0.3-0.2-0.2-1.1-0.3-1.4c-0.1-0.3-0.5-0.6-0.5-1c0-0.4,0.2-0.8-0.1-0.8c-0.3,0-0.5,0.8-0.9,0.8
					c-0.4,0-0.1-0.6,0-1.4c0.1-0.8,1.2-1.7,1.2-1.7s0.8,0.6,0.8,0.8c0,0.2,0.5,0.4,0.5,0c0-0.4-0.5-1.3,0.3-1.6
					c0.8-0.3,1.4-2.1,1.4-2.1l2.1-0.9l0.5-0.8c0,0,1,0,1.4,0c0.4,0,0-0.7,0-0.7s-0.7-1-1.2-1.5c-0.5-0.4-1.9-0.4-1.9-0.4
					s-0.4,1.7-1.1,1.8c-0.5,0.1-0.9-0.4-0.9-0.9c0.5-0.4,1-0.8,1.5-1.2c0.1,0,0.2,0,0.2,0c0.6,0.2,1.4,0,1.4,0s0.8-0.2,1.3-0.8
					c0.4-0.6,0.7-0.8,0.7-0.8h-0.7c0.6-0.3,1.3-0.5,2-0.7c0.1,0.2,0.1,0.4,0.2,0.7c0.1,1.6,2.2,2.4,2.8,2c0.6-0.3-0.5-0.9,0.7-1.5
					c1.1-0.5,1.5-1,2-1.4c1.5,0.2,2.9,0.7,4.2,1.3c-0.3,0.2-0.5,0.4-0.8,0.6c-0.6,0.2-0.9,0.1-0.7,0.5c0.2,0.4,0.6,0.7,0.9,0.6
					c0.3-0.1,0.6,0.1,0.7,0.3c0.1,0.2,0.4,0.6,0.6,0.4c0.2-0.2,0.4-0.5,0.4-0.8c0-0.2-0.3-0.4,0-0.8c0,0,0.1-0.1,0.1-0.1
					c0.1,0,0.1,0.1,0.2,0.1c-0.1,0.1-0.2,0.1,0,0.3c0.3,0.3,1.1,0.5,1.1,0.5s0,0.4-0.5,0.7c-0.6,0.3-0.9,0.5-1.6,0.4
					c-0.7-0.1-0.6-0.2-0.7-0.5c-0.1-0.3-0.3,0-0.3,0.2c0,0.2,0,0.3-0.4,0.5c-0.4,0.2-0.6,0.6-0.9,0.7c-0.3,0.1-1.3,0.1-0.9,0.3
					c0.4,0.3,0.7,0.1,0.6,0.6c-0.1,0.5-0.2,0.7-0.8,0.6c-0.6-0.1-1,0.5-0.9,0.8c0.1,0.3,0.1,0.8,0.5,0.8c0.3,0,0.4,0.1,0.4,0.2
					c0,0,0-0.1,0.4-0.1c0.5,0,0.9-0.3,1-0.6c0-0.3,0.2-0.8,0.5-1c0.3-0.1,0.4-0.2,0.8-0.2c0.4,0,0.5-0.2,0.7-0.1
					c0.2,0.1,1,0.7,1.1,0.9c0.1,0.2,0.3,0.5,0.2,0.7c-0.1,0.2,0.3-0.3,0.3-0.3l0-0.3l0.2,0c0,0-1.1-0.7-1.2-0.9
					c-0.2-0.2-0.3-0.4-0.2-0.4c0.1,0,0.4,0.1,0.5,0.3c0.2,0.2,0.8,0.5,1,0.6c0.2,0.1,0.1,0.4,0.4,0.6c0.2,0.2,0.2,0.7,0.4,0.7
					c0.2,0,0.2-0.3,0.3-0.3c0.1,0-0.6-0.6,0-0.6c0.6,0,0.8,0.7,1,0.9c0.2,0.2,0.4,0.3,1,0.3c0.7,0.1,0.5,0.7,0.4,0.9
					c-0.2,0.2-1.1,0.4-1.4,0.4c-0.4-0.1-1.2-0.6-1.3-0.4c-0.1,0.2,0,0.7-0.4,0.4c-0.4-0.2-0.9-0.5-1.4-0.7c-0.5-0.1-0.7-0.2-0.6-0.4
					c0.1-0.2,0.8-0.6,0-0.6c-0.8,0-2,0.1-2.5,0.3c-0.5,0.2-0.9,0.1-0.9,0.1l-0.3,0.1c-1.4,1.1-1.9,2.5-1.9,3.3c0,0.8-0.3,1.7,0,2.8
					c0.3,1.1,0.5,1.6,1.4,2c0.8,0.4,2.7,0.3,3.7,0.4c1,0.1,1.1-0.5,1.1,0.8c0,1.3,0.3,2.3,0.5,3.2c0.1,0.8,0.1,0.7,0,1.7h6.7
					c1.4-2.5,2.2-5.3,2.2-8.3C325,158.9,317.5,151.4,308.2,151.4z M321.5,166.7c0,0,0.5,1.1,0.6,1.3c0.1,0.3,0,0.7,0.2,0.6
					c0.1,0,0.2-0.1,0.4-0.2c0,0.2,0,0.5,0,0.7c-0.2,0-0.3,0.1-0.4,0c-0.9-1.1-1.6-2.8-2-3.7c-0.5-1.4-0.2-1.2,0-0.8
					C320.3,164.5,320.9,164.7,321.5,166.7z"/>
			</g>
			<g>
				<rect x="260.4" y="187.4" class="st7" width="95.8" height="36.3"/>
				<path class="st8" d="M325.5,206.8c0,2.8-0.3,5.6-0.3,5.6s-0.3,2.4-1.4,3.4c-1.3,1.4-2.8,1.4-3.4,1.4c-4.8,0.3-12.1,0.3-12.1,0.3
					s-9-0.1-11.7-0.3c-0.8-0.1-2.5-0.1-3.8-1.5c-1-1-1.4-3.4-1.4-3.4s-0.3-2.8-0.3-5.6v-2.6c0-2.8,0.3-5.5,0.3-5.5s0.3-2.4,1.4-3.4
					c1.3-1.4,2.8-1.4,3.4-1.4c4.8-0.3,12.1-0.3,12.1-0.3s7.2,0,12.1,0.3c0.7,0.1,2.1,0.1,3.4,1.4c1,1,1.4,3.4,1.4,3.4
					s0.3,2.8,0.3,5.6V206.8z M304.7,210l9.3-4.8l-9.3-4.9V210z"/>
			</g>
		</g>
		<g>
			<path class="st11" d="M88.2,284.1c0,3.3-2.7,5.9-5.9,5.9H40c-3.3,0-5.9-2.7-5.9-5.9v-84c0-3.3,2.7-5.9,5.9-5.9h42.3
				c3.3,0,5.9,2.7,5.9,5.9V284.1z"/>
			<rect x="38.3" y="201.7" class="st7" width="45.7" height="75.1"/>
			<path class="st10" d="M64.5,284.5c0,1.1-0.9,1.9-1.9,1.9h-2.9c-1.1,0-1.9-0.9-1.9-1.9v-2.9c0-1.1,0.9-1.9,1.9-1.9h2.9
				c1.1,0,1.9,0.9,1.9,1.9V284.5z"/>
			<path class="st8" d="M75.9,240.4c0,2.4-0.3,4.8-0.3,4.8s-0.3,2-1.2,2.9c-1.1,1.2-2.4,1.2-2.9,1.2c-4.1,0.3-10.3,0.3-10.3,0.3
				s-7.7-0.1-10-0.3c-0.6-0.1-2.1-0.1-3.2-1.3c-0.9-0.9-1.2-2.9-1.2-2.9s-0.3-2.4-0.3-4.8v-2.2c0-2.4,0.3-4.7,0.3-4.7s0.3-2,1.2-2.9
				c1.1-1.2,2.4-1.2,2.9-1.2c4.1-0.3,10.3-0.3,10.3-0.3s6.2,0,10.3,0.3c0.6,0.1,1.8,0.1,2.9,1.2c0.9,0.9,1.2,2.9,1.2,2.9
				s0.3,2.4,0.3,4.8V240.4z M58.1,243.1l8-4.1l-8-4.2V243.1z"/>
		</g>
	</g>
	<g>
		<g>
			<g>
				<g>
					<linearGradient id="SVGID_1_" gradientUnits="userSpaceOnUse" x1="496.9365" y1="113.3744" x2="703.0635" y2="319.5015">
						<stop  offset="0" style="stop-color:#FFFFFF"/>
						<stop  offset="1" style="stop-color:#DCDDDE"/>
					</linearGradient>
					<path class="st12" d="M716.4,254V131.5c0-6.3-5.1-11.5-11.5-11.5H495.1c-6.3,0-11.5,5.1-11.5,11.5V254h0l-31,14.5
						c0,6.3,2,11.5,8.4,11.5h278.2c6.3,0,8.4-5.1,8.4-11.5L716.4,254z"/>
					<path class="st2" d="M716.4,254V131.5c0-6.3-5.1-11.5-11.5-11.5H495.1c-6.3,0-11.5,5.1-11.5,11.5V254h0H716.4z"/>
					<polygon class="st1" points="747.5,268.5 716.4,254 483.6,254 452.5,268.5 					"/>
				</g>
			</g>
		</g>
		
			<image style="overflow:visible;" width="211" height="115" xlink:href="1E37C6B9809D9A46.png"  transform="matrix(1 0 0 1 494.8962 129.4336)">
		</image>
		<rect x="506.8" y="141.3" class="st4" width="111.7" height="92.4"/>
		<g>
			<rect x="515.9" y="186.3" class="st7" width="7.2" height="36.9"/>
			<rect x="526.7" y="175" class="st7" width="7.2" height="48.3"/>
			<rect x="537.4" y="156.9" class="st7" width="7.2" height="66.4"/>
			<rect x="548.2" y="175" class="st7" width="7.2" height="48.3"/>
			<rect x="559" y="202.6" class="st7" width="7.2" height="20.6"/>
			<rect x="569.7" y="196.5" class="st7" width="7.2" height="26.7"/>
			<rect x="602" y="196.5" class="st7" width="7.2" height="26.7"/>
			<rect x="580.5" y="165.9" class="st7" width="7.2" height="57.4"/>
			<rect x="591.2" y="175" class="st7" width="7.2" height="48.3"/>
		</g>
		<g>
			<rect x="515.9" y="205.7" class="st13" width="7.2" height="17.6"/>
			<rect x="526.7" y="200.2" class="st13" width="7.2" height="23"/>
			<rect x="537.4" y="191.6" class="st13" width="7.2" height="31.6"/>
			<rect x="548.2" y="200.2" class="st13" width="7.2" height="23"/>
			<rect x="559" y="213.4" class="st13" width="7.2" height="9.8"/>
			<rect x="569.7" y="210.5" class="st13" width="7.2" height="12.7"/>
			<rect x="602" y="210.5" class="st13" width="7.2" height="12.7"/>
			<rect x="580.5" y="195.9" class="st13" width="7.2" height="27.3"/>
			<rect x="591.2" y="200.2" class="st13" width="7.2" height="23"/>
		</g>
		<g>
			<rect x="659.2" y="148.9" class="st14" width="32.8" height="3.7"/>
			<rect x="659.2" y="156.2" class="st14" width="32.8" height="3.7"/>
			<rect x="659.2" y="163.6" class="st14" width="13.9" height="3.7"/>
		</g>
		<g>
			<rect x="659.2" y="176.9" class="st14" width="32.8" height="3.7"/>
			<rect x="659.2" y="184.2" class="st14" width="32.8" height="3.7"/>
			<rect x="659.2" y="191.5" class="st14" width="13.9" height="3.7"/>
		</g>
		<g>
			<rect x="659.2" y="204.9" class="st14" width="32.8" height="3.7"/>
			<rect x="659.2" y="212.2" class="st14" width="32.8" height="3.7"/>
			<rect x="659.2" y="219.5" class="st14" width="13.9" height="3.7"/>
		</g>
		<g>
			<path class="st0" d="M636.5,161.8c1.2,1.7,3.1,2.8,5.4,2.8c3.6,0,6.5-2.9,6.5-6.5c0-2.2-1.1-4.1-2.7-5.3l-3.9,5.3L636.5,161.8z"
				/>
			<path class="st14" d="M648.9,148.5l-3.2,4.3c1.6,1.2,2.7,3.1,2.7,5.3c0,3.6-2.9,6.5-6.5,6.5c-2.2,0-4.2-1.1-5.4-2.8l-4.4,3
				c2.2,3.1,5.7,5.1,9.8,5.1c6.6,0,11.9-5.3,11.9-11.9C653.8,154.1,651.8,150.6,648.9,148.5z"/>
			<path class="st7" d="M635.3,158.1c0-3.6,2.9-6.5,6.5-6.5c1.4,0,2.8,0.5,3.9,1.3l3.2-4.3c-2-1.4-4.4-2.3-7-2.3
				c-6.6,0-11.9,5.3-11.9,11.9c0,2.5,0.8,4.8,2.1,6.8l4.4-3C635.7,160.7,635.3,159.4,635.3,158.1z"/>
		</g>
		<g>
			<path class="st0" d="M648.4,186c0-3.6-2.9-6.5-6.5-6.5c-3.3,0-6,2.5-6.5,5.7l6.5,0.9l3.8,5.3C647.3,190.2,648.4,188.2,648.4,186z
				"/>
			<path class="st14" d="M641.9,179.5c3.6,0,6.5,2.9,6.5,6.5c0,2.2-1.1,4.1-2.7,5.3l3.1,4.4c3-2.2,5-5.7,5-9.7
				c0-6.6-5.3-11.9-11.9-11.9c-6,0-11,4.5-11.8,10.3l5.3,0.7C635.8,182,638.5,179.5,641.9,179.5z"/>
			<path class="st7" d="M641.9,197.9c2.6,0,5-0.8,6.9-2.2l-3.1-4.4c-1.1,0.8-2.4,1.2-3.8,1.2c-3.6,0-6.5-2.9-6.5-6.5
				c0-0.3,0-0.6,0.1-0.9l-5.3-0.7c-0.1,0.5-0.1,1.1-0.1,1.6C629.9,192.6,635.3,197.9,641.9,197.9z"/>
		</g>
		<g>
			<path class="st0" d="M641.9,207.5c-3.6,0-6.5,2.9-6.5,6.5c0,3.6,2.9,6.5,6.5,6.5c0.5,0,1-0.1,1.5-0.2l-1.5-6.1l6.1-2.6
				C647.1,209.3,644.7,207.5,641.9,207.5z"/>
			<path class="st14" d="M641.9,220.6c-3.6,0-6.5-2.9-6.5-6.5c0-3.6,2.9-6.5,6.5-6.5c2.8,0,5.2,1.8,6.1,4.3l4.9-2.1
				c-1.7-4.4-6-7.6-11.1-7.6c-6.6,0-11.9,5.3-11.9,11.9c0,6.6,5.3,11.9,11.9,11.9c1,0,1.9-0.1,2.8-0.4l-1.3-5.2
				C642.9,220.5,642.4,220.6,641.9,220.6z"/>
			<path class="st7" d="M653.8,214c0-1.5-0.3-3-0.8-4.3l-4.9,2.1c0.3,0.7,0.4,1.5,0.4,2.3c0,3.1-2.1,5.7-5,6.4l1.3,5.2
				C649.9,224.3,653.8,219.6,653.8,214z"/>
		</g>
	</g>
	<g>
		<path class="st1" d="M886.8,226.8v14.1c0,6.2,5,11.1,11.1,11.1h203.5c6.2,0,11.1-5,11.1-11.1v-14.1H886.8z"/>
		<path class="st2" d="M1112.5,236.4V117.6c0-6.2-5-11.1-11.1-11.1H897.9c-6.2,0-11.1,5-11.1,11.1v118.8H1112.5z"/>
		<path class="st3" d="M1041,283.8c-3.7-2.2-15.9-9.1-15.8-19.8c0-3,0-11.9,0-11.9h-51.2c0,0,0,9,0,11.9
			c0.1,10.8-12.1,17.6-15.8,19.8c-1.6,1-1.2,2.7-1.2,2.7h85C1042.2,286.5,1042.6,284.8,1041,283.8z"/>
		<g>
			<path class="st15" d="M907.9,250.3c8.6-9.7,22.4-11.6,30.7-4.2c8.3,7.4,8.1,21.3-0.6,31c-8.6,9.7-22.4,11.6-30.7,4.2
				C899,273.8,899.3,260,907.9,250.3z"/>
			<path class="st16" d="M908.3,250.7c8.4-9.4,21-11.8,28.1-5.5c7.2,6.4,6.2,19.2-2.2,28.6c-8.4,9.4-20.9,11.8-28.1,5.5
				C899,272.8,900,260,908.3,250.7z"/>
			<path class="st15" d="M910.6,252.4c6.6-7.4,16.5-9.3,22.1-4.3c5.6,5,4.9,15.1-1.7,22.5c-6.6,7.4-16.5,9.3-22.1,4.3
				C903.2,269.8,904,259.8,910.6,252.4z"/>
			<g>
				<path class="st16" d="M928.5,254.2c0.6,0.7,1,1.5,1.3,2.3c0.2,0.9,0.3,1.7,0.2,2.6l-1.3,0.5c-0.1,0-0.2,0.1-0.3,0
					c-0.1,0-0.2-0.1-0.3-0.1c-0.1-0.1-0.2-0.3-0.2-0.5c0-0.3,0-0.6-0.1-0.9c0-0.4-0.1-0.7-0.2-1.2c-0.1-0.4-0.3-0.8-0.7-1.2
					l-5.5,5.6c0.3,0.5,0.5,1,0.7,1.6c0.2,0.5,0.3,1.1,0.3,1.7c0,0.6-0.1,1.2-0.3,1.8c-0.2,0.6-0.7,1.3-1.3,2c-0.5,0.5-1,1-1.6,1.4
					c-0.6,0.4-1.3,0.6-1.9,0.7c-0.7,0.1-1.3,0.1-2,0c-0.7-0.1-1.3-0.5-1.9-1l-1.5,1.5c-0.1,0.1-0.3,0.2-0.5,0.3
					c-0.2,0-0.3,0-0.4-0.1l-0.6-0.5l2.1-2.1c-0.5-0.6-0.8-1.3-1-2c-0.2-0.7-0.2-1.4-0.2-2.1l1-0.4c0.3-0.1,0.5-0.1,0.7,0
					c0.1,0.1,0.1,0.2,0.2,0.4c0,0.2,0.1,0.4,0.1,0.7c0.1,0.3,0.1,0.6,0.2,0.9c0.1,0.3,0.3,0.6,0.5,0.9l5-5.1
					c-0.3-0.5-0.5-1.1-0.7-1.6c-0.2-0.5-0.4-1.1-0.4-1.7c-0.1-0.6,0-1.2,0.2-1.8c0.2-0.6,0.6-1.3,1.2-2c0.6-0.7,1.2-1.2,1.9-1.6
					c0.7-0.4,1.4-0.7,2.1-0.9c0.7-0.2,1.4-0.2,2.1,0c0.7,0.1,1.4,0.5,2,1l1.9-1.9c0.1-0.1,0.3-0.2,0.5-0.3c0.2,0,0.3,0,0.4,0.1
					l0.6,0.5L928.5,254.2z M919.2,267.4c0.3-0.4,0.5-0.7,0.7-1c0.1-0.3,0.2-0.7,0.2-1c0-0.3,0-0.7-0.1-1c-0.1-0.3-0.2-0.7-0.4-1
					l-4.7,4.8c0.4,0.3,0.8,0.5,1.2,0.6c0.4,0.1,0.8,0.1,1.1,0c0.4-0.1,0.7-0.2,1-0.4C918.7,268,919,267.7,919.2,267.4z M921.1,255.9
					c-0.3,0.4-0.6,0.7-0.7,1.1c-0.1,0.4-0.2,0.7-0.2,1.1c0,0.4,0.1,0.7,0.2,1.1c0.1,0.4,0.3,0.7,0.4,1.1l5.2-5.2
					c-0.4-0.3-0.8-0.5-1.3-0.5c-0.4-0.1-0.9-0.1-1.3,0c-0.4,0.1-0.8,0.3-1.2,0.5C921.8,255.2,921.4,255.5,921.1,255.9z"/>
			</g>
		</g>
		<rect x="898.2" y="116.5" class="st8" width="203" height="110"/>
		<g>
			<g>
				<rect x="932.9" y="210.1" class="st13" width="8.5" height="11.4"/>
				<rect x="949.9" y="199.9" class="st13" width="8.5" height="21.6"/>
				<rect x="967" y="192" class="st13" width="8.5" height="29.4"/>
				<rect x="984" y="199.1" class="st13" width="8.5" height="22.3"/>
				<rect x="1001" y="173.7" class="st13" width="8.5" height="47.7"/>
				<rect x="1018.1" y="182.3" class="st13" width="8.5" height="39.2"/>
				<rect x="1035.1" y="164.7" class="st13" width="8.5" height="56.8"/>
				<rect x="1052.2" y="148.7" class="st13" width="8.5" height="72.7"/>
				<rect x="1069.2" y="132.3" class="st13" width="8.5" height="89.2"/>
			</g>
			<g>
				<rect x="924.6" y="130.1" class="st13" width="34.8" height="3.3"/>
				<rect x="924.6" y="138.5" class="st7" width="62.8" height="2"/>
				<rect x="924.6" y="144.7" class="st7" width="53.4" height="2"/>
				<rect x="924.6" y="151" class="st7" width="59.2" height="2"/>
				<rect x="924.6" y="157.3" class="st7" width="46.1" height="2"/>
				<path class="st13" d="M924.6,165.2v6H945v-6H924.6z M941.6,169.2h-13.5v-2h13.5V169.2z"/>
			</g>
			<g>
				<path class="st7" d="M923.9,209.3c-0.3,0-0.6-0.1-0.8-0.4c-0.3-0.4-0.2-1,0.3-1.3l48.6-31.5c0.3-0.2,0.7-0.2,0.9,0l14.5,8.1
					l17.9-28c0.1-0.2,0.4-0.4,0.6-0.4c0.3,0,0.5,0,0.7,0.2l15.3,11.8l50.4-43.4c0.4-0.3,1-0.3,1.3,0.1c0.3,0.4,0.3,1-0.1,1.3
					l-50.9,43.9c-0.3,0.3-0.8,0.3-1.2,0l-15.1-11.6l-17.8,27.9c-0.3,0.4-0.8,0.5-1.2,0.3l-14.8-8.3l-48.1,31.2
					C924.2,209.2,924.1,209.3,923.9,209.3L923.9,209.3z"/>
			</g>
			<circle class="st17" cx="925.2" cy="208" r="3.6"/>
			<circle class="st17" cx="971.9" cy="177.3" r="3.6"/>
			<circle class="st17" cx="987.6" cy="185.2" r="3.6"/>
			<circle class="st17" cx="1006.3" cy="157" r="3.6"/>
			<circle class="st17" cx="1022.6" cy="169.3" r="3.6"/>
			<circle class="st17" cx="1072.8" cy="125" r="3.6"/>
		</g>
		<g>
			<path class="st15" d="M1108.3,249.9c7.8,10.4,6.1,24.8-3.7,32.2c-9.8,7.4-24.1,4.9-31.9-5.4c-7.8-10.4-6.1-24.8,3.7-32.2
				C1086.2,237.1,1100.5,239.5,1108.3,249.9z"/>
			<path class="st16" d="M1107.8,250.3c7.5,10.1,6.6,23.5-2.2,30.1c-8.8,6.6-22,3.7-29.5-6.3c-7.5-10.1-6.6-23.5,2.2-30.1
				C1087.1,237.4,1100.3,240.2,1107.8,250.3z"/>
			<path class="st15" d="M1104.5,252.8c5.9,7.9,5.2,18.5-1.7,23.7c-6.9,5.2-17.3,2.9-23.2-5c-5.9-7.9-5.2-18.5,1.7-23.7
				C1088.1,242.6,1098.5,244.9,1104.5,252.8z"/>
			<g>
				<path class="st16" d="M1097.4,271.2c-0.9,0.5-1.8,0.9-2.8,1c-1,0.1-1.9,0.1-2.9-0.1l-0.2-1.4c0-0.1,0-0.2,0.1-0.4
					c0-0.1,0.1-0.2,0.2-0.3c0.1-0.1,0.3-0.1,0.6-0.1c0.3,0,0.6,0,1,0.1c0.4,0,0.8,0,1.3-0.1c0.5-0.1,1-0.2,1.5-0.5l-4.3-6.6
					c-0.6,0.2-1.2,0.4-1.8,0.5c-0.6,0.1-1.2,0.2-1.9,0.1c-0.6-0.1-1.2-0.3-1.8-0.6c-0.6-0.3-1.2-0.9-1.8-1.7c-0.4-0.6-0.8-1.2-1-1.9
					c-0.2-0.7-0.3-1.4-0.2-2.1c0.1-0.7,0.2-1.4,0.6-2.1c0.3-0.7,0.9-1.3,1.6-1.8l-1.2-1.8c-0.1-0.2-0.1-0.3-0.1-0.5
					c0-0.2,0.1-0.3,0.2-0.4l0.7-0.5l1.6,2.4c0.8-0.4,1.6-0.7,2.3-0.8c0.8-0.1,1.5,0,2.3,0.1l0.1,1.1c0,0.3,0,0.6-0.2,0.7
					c-0.1,0.1-0.2,0.1-0.5,0.1c-0.2,0-0.5,0-0.8,0c-0.3,0-0.6,0.1-1,0.1c-0.4,0.1-0.7,0.2-1.1,0.4l3.9,6c0.6-0.2,1.3-0.4,1.9-0.5
					c0.6-0.2,1.3-0.2,1.9-0.2c0.6,0,1.2,0.2,1.8,0.5c0.6,0.3,1.2,0.8,1.7,1.6c0.5,0.7,0.9,1.5,1.2,2.2c0.3,0.8,0.4,1.6,0.3,2.3
					c0,0.8-0.2,1.5-0.6,2.2c-0.4,0.7-0.9,1.4-1.6,1.9l1.5,2.2c0.1,0.2,0.1,0.3,0.1,0.5c0,0.2-0.1,0.3-0.2,0.4l-0.7,0.5L1097.4,271.2
					z M1086.1,259.7c0.3,0.4,0.6,0.7,0.9,0.9c0.3,0.2,0.7,0.3,1,0.4c0.4,0.1,0.7,0.1,1.1,0c0.4-0.1,0.8-0.1,1.2-0.2l-3.7-5.6
					c-0.4,0.4-0.7,0.8-0.9,1.2c-0.2,0.4-0.3,0.8-0.4,1.2c0,0.4,0,0.8,0.1,1.1C1085.7,259,1085.9,259.3,1086.1,259.7z M1097.7,263.3
					c-0.3-0.4-0.6-0.7-1-0.9c-0.3-0.2-0.7-0.3-1.1-0.3c-0.4,0-0.8,0-1.2,0c-0.4,0.1-0.8,0.2-1.3,0.3l4.1,6.2
					c0.4-0.4,0.7-0.8,0.9-1.2c0.2-0.4,0.3-0.9,0.4-1.3c0-0.4,0-0.9-0.2-1.4C1098.3,264.1,1098.1,263.7,1097.7,263.3z"/>
			</g>
		</g>
		<g>
			<g>
				<rect x="1014.4" y="278.5" class="st18" width="3.2" height="5.1"/>
				<rect x="1054" y="278.5" class="st18" width="3.2" height="5.1"/>
				<path class="st15" d="M1057.2,283.4c0,4.8-9.6,8.7-21.4,8.7c-11.8,0-21.4-3.9-21.4-8.7c0-4.8,9.6-8.7,21.4-8.7
					C1047.6,274.6,1057.2,278.6,1057.2,283.4z"/>
				<path class="st16" d="M1057.2,278.7c0,4.8-9.6,8.7-21.4,8.7c-11.8,0-21.4-3.9-21.4-8.7c0-4.8,9.6-8.7,21.4-8.7
					C1047.6,269.9,1057.2,273.8,1057.2,278.7z"/>
				<path class="st18" d="M1052.7,277.4c0,3.1-7.6,5.6-16.9,5.6c-9.3,0-16.9-2.5-16.9-5.6c0-3.1,7.5-5.6,16.9-5.6
					C1045.1,271.8,1052.7,274.3,1052.7,277.4z"/>
			</g>
			<g>
				<rect x="1012" y="270.4" class="st18" width="3.2" height="5.1"/>
				<rect x="1051.6" y="270.4" class="st18" width="3.2" height="5.1"/>
				<path class="st15" d="M1054.8,275.3c0,4.8-9.6,8.7-21.4,8.7c-11.8,0-21.4-3.9-21.4-8.7c0-4.8,9.6-8.7,21.4-8.7
					C1045.3,266.6,1054.8,270.5,1054.8,275.3z"/>
				<ellipse class="st16" cx="1033.4" cy="270.6" rx="21.4" ry="8.7"/>
				<path class="st18" d="M1050.3,269.3c0,3.1-7.6,5.6-16.9,5.6c-9.3,0-16.9-2.5-16.9-5.6c0-3.1,7.5-5.6,16.9-5.6
					C1042.7,263.7,1050.3,266.2,1050.3,269.3z"/>
			</g>
			<g>
				<rect x="1015" y="262.7" class="st18" width="3.2" height="5.1"/>
				<rect x="1054.7" y="262.7" class="st18" width="3.2" height="5.1"/>
				<path class="st15" d="M1057.9,267.5c0,4.8-9.6,8.7-21.4,8.7c-11.8,0-21.4-3.9-21.4-8.7c0-4.8,9.6-8.7,21.4-8.7
					C1048.3,258.8,1057.9,262.7,1057.9,267.5z"/>
				<path class="st16" d="M1057.9,262.8c0,4.8-9.6,8.7-21.4,8.7c-11.8,0-21.4-3.9-21.4-8.7c0-4.8,9.6-8.7,21.4-8.7
					C1048.3,254.1,1057.9,258,1057.9,262.8z"/>
				<path class="st15" d="M1053.3,261.6c0,3.1-7.5,5.6-16.9,5.6c-9.3,0-16.9-2.5-16.9-5.6c0-3.1,7.6-5.6,16.9-5.6
					C1045.8,255.9,1053.3,258.5,1053.3,261.6z"/>
			</g>
			<g>
				<defs>
					<path id="SVGID_2_" d="M1057.9,262.7c-0.2-4.8-9.7-8.6-21.4-8.6c-11.7,0-21.2,3.8-21.4,8.6h0v3.4c-1.9,1.3-3,2.8-3,4.3h0v5.1h0
						c0.1,1.4,0.9,2.7,2.4,3.8v4.3h0c0.3,4.7,9.7,8.5,21.4,8.5c11.7,0,21.2-3.8,21.4-8.5h0v-5.1h0c-0.1-1.4-0.9-2.7-2.4-3.9V272
						c1.8-1.3,2.9-2.7,3-4.3h0L1057.9,262.7L1057.9,262.7z"/>
				</defs>
				<clipPath id="SVGID_3_">
					<use xlink:href="#SVGID_2_"  style="overflow:visible;"/>
				</clipPath>
				
					<ellipse transform="matrix(0.9755 -0.2199 0.2199 0.9755 -35.0925 239.0256)" class="st19" cx="1056" cy="277.1" rx="21.4" ry="20.5"/>
			</g>
			<circle class="st15" cx="1058.5" cy="271.4" r="22.1"/>
			<path class="st16" d="M1079.9,271.4c0,11.8-9.6,21.4-21.4,21.4c-11.8,0-21.4-9.6-21.4-21.4c0-11.8,9.6-21.4,21.4-21.4
				C1070.3,250,1079.9,259.6,1079.9,271.4z"/>
			<circle class="st15" cx="1058.5" cy="271.4" r="16.9"/>
			<g>
				<path class="st16" d="M1057.3,281.3c-1.1-0.1-2.1-0.4-3.1-0.8c-0.9-0.4-1.7-1-2.4-1.7l0.7-1.1c0.1-0.1,0.2-0.2,0.3-0.2
					c0.1-0.1,0.2-0.1,0.4-0.1c0.2,0,0.4,0.1,0.6,0.3c0.2,0.2,0.5,0.4,0.8,0.6c0.3,0.2,0.7,0.4,1.2,0.7c0.4,0.2,1,0.4,1.6,0.4
					l0.5-7.4c-0.6-0.2-1.3-0.4-1.9-0.7c-0.6-0.2-1.2-0.6-1.7-1c-0.5-0.4-0.9-0.9-1.2-1.5c-0.3-0.6-0.4-1.3-0.4-2.2
					c0-0.7,0.1-1.3,0.4-2c0.3-0.6,0.6-1.2,1.2-1.7c0.5-0.5,1.1-0.9,1.9-1.2c0.7-0.3,1.6-0.5,2.6-0.5l0.1-2c0-0.2,0.1-0.3,0.2-0.5
					c0.1-0.1,0.3-0.2,0.5-0.2h0.9l-0.2,2.8c1,0.1,1.8,0.4,2.5,0.8c0.7,0.4,1.3,0.8,1.9,1.4l-0.6,0.9c-0.2,0.3-0.4,0.4-0.6,0.4
					c-0.1,0-0.3-0.1-0.5-0.2c-0.2-0.1-0.4-0.2-0.7-0.4c-0.3-0.2-0.6-0.3-0.9-0.5c-0.4-0.2-0.8-0.3-1.2-0.3l-0.5,6.7
					c0.7,0.2,1.3,0.4,2,0.7c0.7,0.2,1.2,0.6,1.8,0.9c0.5,0.4,0.9,0.9,1.3,1.4c0.3,0.6,0.5,1.3,0.5,2.1c0,0.8-0.1,1.6-0.4,2.4
					c-0.3,0.7-0.7,1.4-1.2,1.9c-0.5,0.6-1.2,1-2,1.4c-0.8,0.4-1.7,0.5-2.7,0.5l-0.2,2.5c0,0.2-0.1,0.3-0.2,0.5
					c-0.1,0.1-0.3,0.2-0.5,0.2h-0.9L1057.3,281.3z M1055,266.3c0,0.4,0.1,0.8,0.2,1.2c0.2,0.3,0.4,0.6,0.7,0.9
					c0.3,0.3,0.6,0.5,1,0.7c0.4,0.2,0.8,0.3,1.2,0.5l0.4-6.3c-0.6,0.1-1.1,0.2-1.6,0.4c-0.4,0.2-0.8,0.4-1.1,0.7
					c-0.3,0.3-0.5,0.6-0.6,0.9C1055.1,265.5,1055,265.9,1055,266.3z M1062.8,275.5c0-0.5-0.1-0.9-0.3-1.2c-0.2-0.3-0.4-0.6-0.7-0.9
					c-0.3-0.2-0.6-0.4-1-0.6c-0.4-0.2-0.8-0.3-1.3-0.5l-0.5,6.9c0.6-0.1,1.1-0.2,1.6-0.4c0.5-0.2,0.9-0.5,1.2-0.8
					c0.3-0.3,0.6-0.7,0.7-1.1C1062.7,276.5,1062.8,276,1062.8,275.5z"/>
			</g>
		</g>
	</g>
</g>
</svg>
