<?xml version="1.0" encoding="utf-8"?>
<!-- Generator: Adobe Illustrator 20.1.0, SVG Export Plug-In . SVG Version: 6.00 Build 0)  -->
<svg version="1.1" id="Layer_1" xmlns="http://www.w3.org/2000/svg" xmlns:xlink="http://www.w3.org/1999/xlink" x="0px" y="0px"
	 viewBox="0 0 1200 400" style="enable-background:new 0 0 1200 400;" xml:space="preserve">
<style type="text/css">
	.st0{fill:none;}
	.st1{fill:#D1D3D4;}
	.st2{fill:#0C1428;}
	.st3{fill:#FFFFFF;stroke:#000000;stroke-miterlimit:10;}
	.st4{fill:#B0B1B2;}
	.st5{fill:#DCE0E0;}
	.st6{fill:none;stroke:#51868E;stroke-width:3;stroke-miterlimit:10;}
	.st7{fill:#7F969F;}
	.st8{fill:#1ABC9C;}
	.st9{fill:#FFFFFF;}
	.st10{fill:#BDC3C7;}
	.st11{fill:#464646;}
	.st12{fill:#ECF0F1;}
	.st13{fill:url(#SVGID_1_);}
	.st14{fill:#51868E;}
	.st15{fill:#34495E;}
	.st16{fill:#FFFFFF;stroke:#1ABC9C;stroke-width:1.5;stroke-miterlimit:10;}
</style>
<rect class="st0" width="400" height="400"/>
<rect x="400" class="st0" width="400" height="400"/>
<rect x="800" class="st0" width="400" height="400"/>
<g>
	<path class="st1" d="M61.1,230.3v14.1c0,6.2,5,11.1,11.1,11.1h203.5c6.2,0,11.1-5,11.1-11.1v-14.1H61.1z"/>
	<path class="st2" d="M286.9,239.9V121.1c0-6.2-5-11.1-11.1-11.1H72.3c-6.2,0-11.1,5-11.1,11.1v118.8H286.9z"/>
	<rect x="71.9" y="119.4" class="st3" width="204" height="111"/>
	<path class="st4" d="M215.4,287.3c-3.7-2.2-15.9-9.1-15.8-19.8c0-3,0-11.9,0-11.9h-51.2c0,0,0,9,0,11.9
		c0.1,10.8-12.1,17.6-15.8,19.8c-1.6,1-1.2,2.7-1.2,2.7h85C216.5,290,217,288.3,215.4,287.3z"/>
	<g>
		<rect x="72.3" y="131" class="st5" width="203.4" height="54.7"/>
		<polyline class="st6" points="226.1,169 233.8,159.8 226.1,150.6 		"/>
		<polyline class="st6" points="124.1,169 116.3,159.8 124.1,150.6 		"/>
		<path class="st7" d="M174,135.5c-18.5,0-33.5,15-33.5,33.5c0,6.1,1.6,11.8,4.5,16.7h5.3C147,181,145,175.2,145,169
			c0-1.4,0.1-2.7,0.3-4c0.3,1.1,1.1,2.5,2.3,2.6c1.4,0.2,2.3,1.5,2.3,2.2s1.7,1.7,1.9,2.8s1.5,0.7,1.5,0.7s-1,3.4-1,4.2
			s2.2,5.7,4.2,7.9c0,0.1,0.1,0.1,0.1,0.2h12.9c0.3-1.4,0.8-3.3,1.3-4.4c0.7-1.5-1.3-1.9-3-2.2s-3-2.2-3-3.7s-2.7-1.7-3.2-2.8
			s-2.7-1.5-2.7-1.5s-1.9-0.8-2.6-1.2c-0.8-0.3-2.8,2.6-2.8,2.6s-1.2-0.8-1.9-1.1s-0.3-2.2-0.5-2.9s-1-1.2-1-2s0.3-1.5-0.2-1.5
			s-1,1.5-1.9,1.5c-0.8,0-0.2-1.2,0-2.9s2.4-3.4,2.4-3.4s1.7,1.2,1.7,1.5s1,0.8,1,0s-1-2.7,0.5-3.2s2.8-4.2,2.8-4.2l4.1-1.9l1-1.5
			c0,0,2,0,2.9,0c0.8,0,0-1.5,0-1.5s-1.3-2.1-2.4-2.9c-1-0.8-3.7-0.8-3.7-0.8s-0.8,3.4-2.1,3.7c-1.1,0.3-1.7-0.9-1.9-1.8
			c0.9-0.9,2-1.7,3-2.4c0.2,0,0.3,0,0.5,0.1c1.2,0.3,2.7,0,2.7,0s1.7-0.3,2.5-1.6s1.3-1.6,1.3-1.6H163c1.3-0.5,2.6-1,4-1.3
			c0.2,0.3,0.3,0.7,0.3,1.3c0.2,3.2,4.4,4.7,5.5,4.1c1.2-0.7-1-1.8,1.4-3c2.1-1.1,3-1.9,4.1-2.9c3,0.4,5.8,1.3,8.4,2.6
			c-0.5,0.4-1,0.9-1.6,1.1c-1.2,0.5-1.8,0.2-1.4,0.9c0.4,0.7,1.3,1.4,1.9,1.1c0.6-0.2,1.1,0.1,1.3,0.5s0.7,1.2,1.2,0.8
			s0.9-1.1,0.8-1.5c-0.1-0.4-0.7-0.8,0-1.6c0.1-0.1,0.1-0.1,0.2-0.2c0.1,0.1,0.2,0.1,0.3,0.2c-0.2,0.1-0.3,0.2,0,0.5
			c0.6,0.5,2.1,1.1,2.1,1.1s0,0.9-1.1,1.4s-1.9,1-3.2,0.7s-1.2-0.4-1.4-1.1c-0.2-0.6-0.5,0.1-0.5,0.5s-0.1,0.5-0.8,1
			s-1.3,1.1-1.9,1.4c-0.6,0.2-2.5,0.1-1.8,0.7c0.7,0.5,1.4,0.2,1.2,1.1c-0.2,0.9-0.4,1.3-1.6,1.2c-1.1-0.2-1.9,1-1.8,1.6
			c0.1,0.6,0.1,1.6,0.9,1.6c0.6,0,0.8,0.3,0.9,0.4c0-0.1,0.1-0.2,0.7-0.2c1,0,1.9-0.5,1.9-1.2c0.1-0.6,0.4-1.6,1-1.9
			c0.6-0.3,0.8-0.4,1.5-0.3c0.8,0,1-0.4,1.5-0.2c0.5,0.3,2,1.4,2.3,1.7c0.3,0.4,0.7,1,0.4,1.3s0.5-0.5,0.5-0.5v-0.6l0.4,0.1
			c0,0-2.1-1.4-2.4-1.9c-0.3-0.4-0.7-0.8-0.4-0.9c0.3-0.1,0.7,0.3,1.1,0.6c0.3,0.3,1.7,1,2,1.3s0.3,0.8,0.7,1.2
			c0.5,0.4,0.4,1.4,0.8,1.4c0.4,0,0.5-0.6,0.7-0.6s-1.3-1.2-0.1-1.2s1.6,1.4,2,1.8c0.4,0.3,0.8,0.5,2.1,0.7c1.3,0.1,1.1,1.4,0.7,1.7
			c-0.4,0.3-2.1,0.8-2.8,0.7s-2.4-1.3-2.7-0.8c-0.3,0.4,0,1.3-0.8,0.9c-0.8-0.4-1.8-1-2.8-1.3s-1.3-0.3-1.1-0.8s1.6-1.2,0-1.3
			c-1.7,0-4,0.2-4.9,0.5c-0.9,0.4-1.9,0.3-1.9,0.3l-0.6,0.3c-2.9,2.2-3.9,5.1-3.9,6.6s-0.5,3.4,0,5.6c0.5,2.2,1,3.2,2.7,4.1
			c1.7,0.8,5.4,0.7,7.4,0.8c2,0.2,2.2-1,2.2,1.5s0.7,4.6,1,6.4c0.3,1.6,0.2,1.5,0.1,3.3h13.4c2.8-4.9,4.5-10.6,4.5-16.7
			C207.5,150.5,192.5,135.5,174,135.5z M200.6,166c0,0,1.1,2.1,1.2,2.7c0.2,0.5,0,1.3,0.4,1.2c0.1,0,0.4-0.2,0.8-0.5
			c0,0.5,0,1-0.1,1.5c-0.3,0.1-0.6,0.1-0.7,0c-1.7-2.2-3.3-5.5-4-7.4c-1-2.9-0.4-2.3-0.1-1.6C198.2,161.7,199.2,162.1,200.6,166z"/>
	</g>
	<rect x="122.8" y="188.9" class="st8" width="102.4" height="38.8"/>
	<path class="st9" d="M192.4,209.7c0,3-0.4,6-0.4,6s-0.4,2.5-1.5,3.6c-1.4,1.5-3,1.5-3.7,1.5c-5.2,0.4-12.9,0.4-12.9,0.4
		s-9.6-0.1-12.5-0.4c-0.8-0.1-2.7-0.1-4.1-1.6c-1.1-1.1-1.5-3.6-1.5-3.6s-0.4-3-0.4-6v-2.8c0-2.9,0.4-5.9,0.4-5.9s0.4-2.5,1.5-3.6
		c1.4-1.5,3-1.5,3.7-1.5c5.2-0.4,12.9-0.4,12.9-0.4s7.7,0,12.9,0.4c0.7,0.1,2.3,0.1,3.7,1.5c1.1,1.1,1.5,3.6,1.5,3.6s0.4,3,0.4,6
		L192.4,209.7L192.4,209.7z M170.2,213.1l9.9-5.2l-9.9-5.2V213.1z"/>
	<path class="st10" d="M365.9,279.9c0,5.6-4.5,10.1-10.1,10.1h-95.1c-5.6,0-10.1-4.5-10.1-10.1V141.1c0-5.6,4.5-10.1,10.1-10.1h95.1
		c5.6,0,10.1,4.5,10.1,10.1V279.9z"/>
	<path class="st11" d="M314.1,280.9c0,1.9-1.5,3.4-3.4,3.4h-5c-1.9,0-3.4-1.5-3.4-3.4v-5c0-1.9,1.5-3.4,3.4-3.4h5
		c1.9,0,3.4,1.5,3.4,3.4V280.9z"/>
	<rect x="257.4" y="143.6" class="st9" width="101.7" height="123.8"/>
	<g>
		<g>
			<rect x="271.1" y="251.9" class="st10" width="21.5" height="2.1"/>
			<rect x="271.1" y="255.5" class="st10" width="21.5" height="2.1"/>
			<rect x="271.1" y="259.1" class="st10" width="11" height="2.1"/>
			<rect x="271.1" y="228.3" class="st10" width="21.5" height="20.7"/>
		</g>
		<g>
			<rect x="297.5" y="251.9" class="st10" width="21.5" height="2.1"/>
			<rect x="297.5" y="255.5" class="st10" width="21.5" height="2.1"/>
			<rect x="297.5" y="259.1" class="st10" width="11" height="2.1"/>
			<rect x="297.5" y="228.3" class="st10" width="21.5" height="20.7"/>
		</g>
		<g>
			<rect x="323.9" y="251.9" class="st10" width="21.5" height="2.1"/>
			<rect x="323.9" y="255.5" class="st10" width="21.5" height="2.1"/>
			<rect x="323.9" y="259.1" class="st10" width="11" height="2.1"/>
			<rect x="323.9" y="228.3" class="st10" width="21.5" height="20.7"/>
		</g>
	</g>
	<g>
		<rect x="257.4" y="149.2" class="st5" width="101.7" height="27.3"/>
		<polyline class="st6" points="334.3,168.2 338.1,163.6 334.3,159 		"/>
		<polyline class="st6" points="283.3,168.2 279.4,163.6 283.3,159 		"/>
		<path class="st7" d="M308.2,151.4c-9.2,0-16.7,7.5-16.7,16.7c0,3,0.8,5.9,2.2,8.3h2.7c-1.7-2.4-2.6-5.2-2.6-8.3c0-0.7,0-1.3,0.1-2
			c0.2,0.5,0.6,1.2,1.1,1.3c0.7,0.1,1.1,0.8,1.1,1.1s0.8,0.8,0.9,1.4c0.1,0.6,0.8,0.4,0.8,0.4s-0.5,1.7-0.5,2.1c0,0.4,1.1,2.9,2.1,4
			c0,0,0,0.1,0.1,0.1h6.4c0.1-0.7,0.4-1.7,0.7-2.2c0.3-0.8-0.7-0.9-1.5-1.1c-0.8-0.2-1.5-1.1-1.5-1.9c0-0.8-1.4-0.8-1.6-1.4
			c-0.3-0.5-1.3-0.7-1.3-0.7s-0.9-0.4-1.3-0.6c-0.4-0.2-1.4,1.3-1.4,1.3s-0.6-0.4-0.9-0.6c-0.3-0.2-0.2-1.1-0.3-1.4
			c-0.1-0.3-0.5-0.6-0.5-1s0.2-0.8-0.1-0.8c-0.3,0-0.5,0.8-0.9,0.8s-0.1-0.6,0-1.4c0.1-0.8,1.2-1.7,1.2-1.7s0.8,0.6,0.8,0.8
			s0.5,0.4,0.5,0s-0.5-1.3,0.3-1.6s1.4-2.1,1.4-2.1l2.1-0.9l0.5-0.8c0,0,1,0,1.4,0s0-0.7,0-0.7s-0.7-1-1.2-1.5
			c-0.5-0.4-1.9-0.4-1.9-0.4s-0.4,1.7-1.1,1.8c-0.5,0.1-0.9-0.4-0.9-0.9c0.5-0.4,1-0.8,1.5-1.2c0.1,0,0.2,0,0.2,0
			c0.6,0.2,1.4,0,1.4,0s0.8-0.2,1.3-0.8c0.4-0.6,0.7-0.8,0.7-0.8h-0.7c0.6-0.3,1.3-0.5,2-0.7c0.1,0.2,0.1,0.4,0.2,0.7
			c0.1,1.6,2.2,2.4,2.8,2c0.6-0.3-0.5-0.9,0.7-1.5c1.1-0.5,1.5-1,2-1.4c1.5,0.2,2.9,0.7,4.2,1.3c-0.3,0.2-0.5,0.4-0.8,0.6
			c-0.6,0.2-0.9,0.1-0.7,0.5c0.2,0.4,0.6,0.7,0.9,0.6c0.3-0.1,0.6,0.1,0.7,0.3s0.4,0.6,0.6,0.4c0.2-0.2,0.4-0.5,0.4-0.8
			c0-0.2-0.3-0.4,0-0.8l0.1-0.1c0.1,0,0.1,0.1,0.2,0.1c-0.1,0.1-0.2,0.1,0,0.3c0.3,0.3,1.1,0.5,1.1,0.5s0,0.4-0.5,0.7
			c-0.6,0.3-0.9,0.5-1.6,0.4s-0.6-0.2-0.7-0.5s-0.3,0-0.3,0.2s0,0.3-0.4,0.5s-0.6,0.6-0.9,0.7c-0.3,0.1-1.3,0.1-0.9,0.3
			c0.4,0.3,0.7,0.1,0.6,0.6s-0.2,0.7-0.8,0.6c-0.6-0.1-1,0.5-0.9,0.8s0.1,0.8,0.5,0.8c0.3,0,0.4,0.1,0.4,0.2c0,0,0-0.1,0.4-0.1
			c0.5,0,0.9-0.3,1-0.6c0-0.3,0.2-0.8,0.5-1c0.3-0.1,0.4-0.2,0.8-0.2s0.5-0.2,0.7-0.1c0.2,0.1,1,0.7,1.1,0.9s0.3,0.5,0.2,0.7
			c-0.1,0.2,0.3-0.3,0.3-0.3V161h0.2c0,0-1.1-0.7-1.2-0.9c-0.2-0.2-0.3-0.4-0.2-0.4c0.1,0,0.4,0.1,0.5,0.3c0.2,0.2,0.8,0.5,1,0.6
			s0.1,0.4,0.4,0.6c0.2,0.2,0.2,0.7,0.4,0.7c0.2,0,0.2-0.3,0.3-0.3c0.1,0-0.6-0.6,0-0.6s0.8,0.7,1,0.9s0.4,0.3,1,0.3
			c0.7,0.1,0.5,0.7,0.4,0.9c-0.2,0.2-1.1,0.4-1.4,0.4c-0.4-0.1-1.2-0.6-1.3-0.4c-0.1,0.2,0,0.7-0.4,0.4c-0.4-0.2-0.9-0.5-1.4-0.7
			c-0.5-0.1-0.7-0.2-0.6-0.4s0.8-0.6,0-0.6s-2,0.1-2.5,0.3s-0.9,0.1-0.9,0.1l-0.3,0.1c-1.4,1.1-1.9,2.5-1.9,3.3s-0.3,1.7,0,2.8
			s0.5,1.6,1.4,2c0.8,0.4,2.7,0.3,3.7,0.4c1,0.1,1.1-0.5,1.1,0.8s0.3,2.3,0.5,3.2c0.1,0.8,0.1,0.7,0,1.7h6.7
			c1.4-2.5,2.2-5.3,2.2-8.3C325,158.9,317.5,151.4,308.2,151.4z M321.5,166.7c0,0,0.5,1.1,0.6,1.3c0.1,0.3,0,0.7,0.2,0.6
			c0.1,0,0.2-0.1,0.4-0.2c0,0.2,0,0.5,0,0.7c-0.2,0-0.3,0.1-0.4,0c-0.9-1.1-1.6-2.8-2-3.7c-0.5-1.4-0.2-1.2,0-0.8
			C320.3,164.5,320.9,164.7,321.5,166.7z"/>
	</g>
	<g>
		<rect x="260.4" y="187.4" class="st8" width="95.8" height="36.3"/>
		<path class="st9" d="M325.5,206.8c0,2.8-0.3,5.6-0.3,5.6s-0.3,2.4-1.4,3.4c-1.3,1.4-2.8,1.4-3.4,1.4c-4.8,0.3-12.1,0.3-12.1,0.3
			s-9-0.1-11.7-0.3c-0.8-0.1-2.5-0.1-3.8-1.5c-1-1-1.4-3.4-1.4-3.4s-0.3-2.8-0.3-5.6v-2.6c0-2.8,0.3-5.5,0.3-5.5s0.3-2.4,1.4-3.4
			c1.3-1.4,2.8-1.4,3.4-1.4c4.8-0.3,12.1-0.3,12.1-0.3s7.2,0,12.1,0.3c0.7,0.1,2.1,0.1,3.4,1.4c1,1,1.4,3.4,1.4,3.4s0.3,2.8,0.3,5.6
			V206.8z M304.7,210l9.3-4.8l-9.3-4.9V210z"/>
	</g>
	<g>
		<path class="st12" d="M88.2,284.1c0,3.3-2.7,5.9-5.9,5.9H40c-3.3,0-5.9-2.7-5.9-5.9v-84c0-3.3,2.7-5.9,5.9-5.9h42.3
			c3.3,0,5.9,2.7,5.9,5.9C88.2,200.1,88.2,284.1,88.2,284.1z"/>
		<rect x="38.3" y="201.7" class="st8" width="45.7" height="75.1"/>
		<path class="st11" d="M64.5,284.5c0,1.1-0.9,1.9-1.9,1.9h-2.9c-1.1,0-1.9-0.9-1.9-1.9v-2.9c0-1.1,0.9-1.9,1.9-1.9h2.9
			c1.1,0,1.9,0.9,1.9,1.9V284.5z"/>
		<path class="st9" d="M75.9,240.4c0,2.4-0.3,4.8-0.3,4.8s-0.3,2-1.2,2.9c-1.1,1.2-2.4,1.2-2.9,1.2c-4.1,0.3-10.3,0.3-10.3,0.3
			s-7.7-0.1-10-0.3c-0.6-0.1-2.1-0.1-3.2-1.3c-0.9-0.9-1.2-2.9-1.2-2.9s-0.3-2.4-0.3-4.8v-2.2c0-2.4,0.3-4.7,0.3-4.7s0.3-2,1.2-2.9
			c1.1-1.2,2.4-1.2,2.9-1.2C55,229,61.2,229,61.2,229s6.2,0,10.3,0.3c0.6,0.1,1.8,0.1,2.9,1.2c0.9,0.9,1.2,2.9,1.2,2.9
			s0.3,2.4,0.3,4.8V240.4z M58.1,243.1l8-4.1l-8-4.2V243.1z"/>
	</g>
</g>
<g>
	<g>
		<g>
			<g>
				
					<linearGradient id="SVGID_1_" gradientUnits="userSpaceOnUse" x1="495.8914" y1="-843.0907" x2="704.0499" y2="-634.932" gradientTransform="matrix(1 0 0 1 0 969.8)">
					<stop  offset="0" style="stop-color:#FFFFFF"/>
					<stop  offset="1" style="stop-color:#DCDDDE"/>
				</linearGradient>
				<path class="st13" d="M717.5,268.8V145c0-6.4-5.1-11.6-11.6-11.6H494c-6.4,0-11.6,5.1-11.6,11.6v123.7l0,0l-31.3,14.7
					c0,6.4,2,11.6,8.5,11.6h280.8c6.4,0,8.5-5.1,8.5-11.6L717.5,268.8z"/>
				<path class="st2" d="M717.5,268.8V145c0-6.4-5.1-11.6-11.6-11.6H494c-6.4,0-11.6,5.1-11.6,11.6v123.7l0,0h235.1V268.8z"/>
				<polygon class="st1" points="748.8,283.4 717.5,268.8 482.4,268.8 451.1,283.4 				"/>
			</g>
		</g>
	</g>
	<rect x="494" y="142.9" class="st3" width="212" height="116.1"/>
	<g>
		<path class="st9" d="M706.8,239.2c-0.3,1.4-1.7,2.3-3.2,2L647.2,229c-1.4-0.3-2.3-1.7-2-3.2l8.8-40.4c0.3-1.4,1.7-2.3,3.2-2
			l56.3,12.2c1.4,0.3,2.3,1.7,2,3.2L706.8,239.2z"/>
		<g>
			<path class="st7" d="M714.9,189.7l-56.3-12.2c-4.6-1-9.3,2-10.3,6.7l-8.8,40.4c-1,4.6,1.9,9.3,6.7,10.3l56.3,12.2
				c4.6,1,9.3-1.9,10.3-6.7l8.8-40.4C722.5,195.4,719.5,190.7,714.9,189.7z M706.8,239.2c-0.3,1.4-1.7,2.3-3.2,2L647.2,229
				c-1.4-0.3-2.3-1.7-2-3.2l8.8-40.4c0.3-1.4,1.7-2.3,3.2-2l56.3,12.2c1.4,0.3,2.3,1.7,2,3.2L706.8,239.2z"/>
			<path class="st7" d="M661.3,199.6c0.4-2,0.8-3.8,1.1-5.6h0.1c0.3,1.6,0.8,3.4,1.2,4.9l1.6,5.5l3,0.6l2.7-12.6l-2.6-0.6l-0.8,3.6
				c-0.4,1.9-0.7,3.6-0.9,5.3l0,0c-0.3-1.5-0.7-3.3-1.1-4.7l-1.6-5.2l-3.3-0.7l-2.7,12.6l2.6,0.6L661.3,199.6z"/>
			<polygon class="st7" points="674.7,200.9 679.3,201.9 679.8,199.6 675.2,198.6 675.8,196 680.8,197.1 681.3,194.7 673.5,193.1 
				670.8,205.7 678.7,207.4 679.2,205.1 674.1,204 			"/>
			<path class="st7" d="M688.4,203.9c0.6-1.2,1-2.3,1.6-3.7l0,0c-0.2,1.5-0.2,2.7-0.2,4l-0.1,5.7l3.1,0.7l6-11.9l-2.9-0.6l-2.1,4.9
				c-0.6,1.4-1.2,2.9-1.7,4.2l0,0c0.1-1.4,0.2-2.8,0.2-4.3l0.1-5.6l-3-0.7l-2.2,4.9c-0.7,1.5-1.3,2.9-1.8,4.2l0,0
				c0.1-1.3,0.2-3,0.2-4.5l0.2-5.5l-3-0.7l0.3,13.3l3.1,0.7L688.4,203.9z"/>
			<path class="st7" d="M703.9,205c-1.5-1-2.1-1.5-1.9-2.3c0.1-0.6,0.9-1.1,2.1-0.8c1.2,0.3,2,0.8,2.5,1.2l1.1-2.1
				c-0.7-0.5-1.6-1-3.1-1.3c-2.9-0.6-5.1,0.6-5.6,2.7c-0.4,1.8,0.7,3.3,2.6,4.5c1.4,0.8,1.9,1.4,1.7,2.2c-0.2,0.8-1,1.2-2.3,0.9
				c-1.2-0.3-2.3-0.9-3-1.5l-1.1,2.2c0.6,0.5,1.9,1.2,3.4,1.6c3.4,0.7,5.5-0.7,6-2.8C706.7,207.7,706,206.3,703.9,205z"/>
			
				<rect x="664.3" y="202.3" transform="matrix(0.212 -0.9773 0.9773 0.212 317.1421 818.7562)" class="st7" width="4" height="20.8"/>
			<rect x="662.7" y="209" transform="matrix(0.212 -0.9773 0.9773 0.212 309.4276 822.522)" class="st7" width="4" height="20.8"/>
			
				<rect x="661.3" y="215.7" transform="matrix(0.212 -0.9773 0.9773 0.212 301.7447 826.4111)" class="st7" width="4" height="20.8"/>
			
				<rect x="691.1" y="208.2" transform="matrix(0.212 -0.9773 0.9773 0.212 332.5982 849.6364)" class="st7" width="4" height="20.8"/>
			
				<rect x="689.7" y="214.8" transform="matrix(0.212 -0.9773 0.9773 0.212 325.0286 853.4685)" class="st7" width="4" height="20.8"/>
			
				<rect x="684.7" y="224.3" transform="matrix(0.212 -0.9773 0.9773 0.212 315.3037 853.1983)" class="st7" width="4" height="13.5"/>
		</g>
	</g>
	<g>
		<polygon class="st9" points="617.8,207.3 616.6,207.5 612.2,213.2 618.4,212.6 		"/>
		<polygon class="st9" points="585.9,196.8 579.8,194.2 572.1,196.7 578.2,199.4 		"/>
		<polygon class="st9" points="614.1,187.3 612.7,183.1 606.2,185.3 612.1,188 		"/>
		<polygon class="st9" points="588.9,210.2 580.8,211 576.6,216.8 584.6,216 		"/>
		<polygon class="st9" points="602.8,191.1 596.8,188.4 589.2,191 595.2,193.7 		"/>
		<polygon class="st9" points="606.7,208.4 598.7,209.2 594.3,215 602.4,214.1 		"/>
		<path class="st9" d="M567,245.7l54.1-5.5l-2.4-23.7l-54.1,5.5L567,245.7z M592.6,223.1c4.4-0.4,8.5,2.8,8.9,7.3
			c0.4,4.4-2.8,8.5-7.3,8.9c-4.4,0.4-8.5-2.8-8.9-7.3C584.9,227.6,588.1,223.6,592.6,223.1z"/>
		<polygon class="st9" points="598.3,230.8 594.3,228.7 590.4,226.6 590.9,231.5 591.4,236.5 594.9,233.6 		"/>
		<polygon class="st9" points="562.9,199.8 561,200.4 562.5,204.7 568.8,202.5 		"/>
		<polygon class="st9" points="564.3,218 566.7,217.8 571,212 563.7,212.7 		"/>
		<path class="st8" d="M594.2,239.4c4.4-0.4,7.8-4.4,7.3-8.9c-0.4-4.4-4.4-7.8-8.9-7.3c-4.4,0.4-7.8,4.4-7.3,8.9
			C585.8,236.6,589.7,239.8,594.2,239.4z M590.9,231.5l-0.5-4.9l3.9,2.1l4,2.1l-3.4,2.8l-3.4,2.8L590.9,231.5z"/>
		<path class="st8" d="M622.6,201.5l-51.4,5.1l49.4-16.4l-4.6-13.8l-61.8,20.8l3.8,12.4l0.9,8.9l0,0l3.3,33l64.7-6.5l-3.3-33l0,0
			L622.6,201.5z M612.7,183.1l1.4,4.2l-2,0.7l-6.1-2.6L612.7,183.1z M596.8,188.4l6.1,2.6l-7.7,2.5l-6.1-2.6L596.8,188.4z
			 M579.8,194.2l6.1,2.6l-7.7,2.5l-6.1-2.6L579.8,194.2z M616.6,207.5l1.3-0.1l0.5,5.2l-6.2,0.6L616.6,207.5z M598.7,209.2l8-0.8
			l-4.3,5.8l-8,0.8L598.7,209.2z M580.8,211l8-0.8l-4.3,5.8l-8,0.8L580.8,211z M561,200.4l1.8-0.6l6.1,2.6l-6.5,2.1L561,200.4z
			 M571,212l-4.3,5.8l-2.5,0.2l-0.5-5.2L571,212z M621.1,240.3l-54.1,5.5l-2.4-23.7l54.1-5.5L621.1,240.3z"/>
	</g>
	<g>
		<path class="st14" d="M648.1,111.2l-17,2.6l-3.7-7c-0.7-1.2-2.3-2-3.7-1.8l-17.3,2.7c-1.4,0.2-2.7,1.5-2.9,2.8l-1.5,7.8l-17,2.6
			c-1.4,0.2-2.3,1.5-2.1,2.9l6.3,40.2c0.2,1.4,1.5,2.3,2.9,2.1l63.1-9.8c1.4-0.2,2.3-1.5,2.1-2.9l-6.3-40.2
			C650.9,112,649.6,111,648.1,111.2z"/>
		
			<ellipse transform="matrix(0.9881 -0.1541 0.1541 0.9881 -13.9725 97.2282)" class="st9" cx="620.2" cy="138.7" rx="15.5" ry="15.5"/>
		
			<rect x="634.5" y="117.3" transform="matrix(0.9881 -0.1541 0.1541 0.9881 -10.8775 100.2118)" class="st9" width="12.9" height="5.9"/>
		
			<ellipse transform="matrix(0.9881 -0.1541 0.1541 0.9881 -13.9725 97.2282)" class="st14" cx="620.2" cy="138.7" rx="10.6" ry="10.6"/>
	</g>
	<path class="st8" d="M541.7,190.3v-27.6v-6.7v-0.6l-31.1-7.4v1.5h-0.1v31.3c-2.4-1.4-6.3-0.3-8.9,2.6c-3,3.3-3.5,7.7-1.2,9.8
		c2.3,2.1,6.7,1.2,9.7-2.1c2.1-2.3,3-5.1,2.5-7.4v-28.1l27.1,6.5v25c-2.4-1.4-6.2-0.3-8.9,2.6c-3,3.3-3.5,7.7-1.2,9.8
		c2.3,2.1,6.7,1.2,9.7-2.1C541.3,195.4,542.1,192.5,541.7,190.3z"/>
</g>
<g>
	<path class="st1" d="M880.9,232v14.9c0,6.5,5.3,11.8,11.8,11.8h214.8c6.5,0,11.8-5.3,11.8-11.8V232H880.9z"/>
	<path class="st2" d="M1119.1,242.1V116.8c0-6.5-5.2-11.8-11.8-11.8H892.6c-6.5,0-11.8,5.3-11.8,11.8v125.4L1119.1,242.1
		L1119.1,242.1z"/>
	<path class="st4" d="M1043.6,292.2c-3.9-2.3-16.7-9.6-16.6-21c0-3.2,0-12.6,0-12.6h-54c0,0,0,9.4,0,12.6
		c0.1,11.4-12.7,18.6-16.6,21c-1.7,1-1.2,2.8-1.2,2.8h89.8C1044.9,295,1045.3,293.2,1043.6,292.2z"/>
	<rect x="892.9" y="115.5" class="st9" width="214.3" height="116.1"/>
	<g>
		<g>
			<rect x="929.5" y="214.4" class="st15" width="9" height="12"/>
			<rect x="947.5" y="203.6" class="st15" width="9" height="22.8"/>
			<rect x="965.5" y="195.3" class="st15" width="9" height="31"/>
			<rect x="983.5" y="202.8" class="st15" width="9" height="23.6"/>
			<rect x="1001.4" y="176" class="st15" width="9" height="50.4"/>
			<rect x="1019.5" y="184.9" class="st15" width="9" height="41.3"/>
			<rect x="1037.4" y="166.4" class="st15" width="9" height="60"/>
			<rect x="1055.4" y="149.6" class="st15" width="9" height="76.8"/>
			<rect x="1073.4" y="132.2" class="st15" width="9" height="94.2"/>
		</g>
		<g>
			<rect x="920.8" y="129.9" class="st15" width="36.7" height="3.5"/>
			<rect x="920.8" y="138.8" class="st8" width="66.3" height="2.1"/>
			<rect x="920.8" y="145.4" class="st8" width="56.3" height="2.1"/>
			<rect x="920.8" y="152" class="st8" width="62.5" height="2.1"/>
			<rect x="920.8" y="158.6" class="st8" width="48.6" height="2.1"/>
			<path class="st15" d="M920.8,166.9v6.3h21.5v-6.3H920.8z M938.7,171.2h-14.3V169h14.2L938.7,171.2L938.7,171.2z"/>
		</g>
		<g>
			<path class="st8" d="M920,213.5c-0.3,0-0.6-0.1-0.8-0.4c-0.3-0.5-0.1-1,0.3-1.3l51.2-33.2c0.3-0.2,0.7-0.2,1,0l15.3,8.6
				l18.8-29.5c0.1-0.2,0.4-0.4,0.6-0.4c0.3-0.1,0.6,0,0.8,0.2l16.2,12.4l53.2-45.8c0.4-0.3,1-0.3,1.4,0.1c0.3,0.4,0.3,1-0.1,1.4
				l-53.7,46.4c-0.3,0.3-0.8,0.3-1.2,0l-16-12.2L988.2,189c-0.3,0.4-0.8,0.6-1.3,0.3l-15.6-8.7l-50.8,32.9
				C920.3,213.4,920.2,213.5,920,213.5L920,213.5z"/>
		</g>
		<circle class="st16" cx="921.4" cy="212.1" r="3.8"/>
		<circle class="st16" cx="970.7" cy="179.7" r="3.8"/>
		<circle class="st16" cx="987.3" cy="188.1" r="3.8"/>
		<circle class="st16" cx="1006.9" cy="158.2" r="3.8"/>
		<circle class="st16" cx="1024.2" cy="171.3" r="3.8"/>
		<circle class="st16" cx="1077.3" cy="124.5" r="3.8"/>
	</g>
</g>
</svg>
