<?xml version="1.0" encoding="utf-8"?>
<!-- Generator: Adobe Illustrator 20.1.0, SVG Export Plug-In . SVG Version: 6.00 Build 0)  -->
<svg version="1.1" id="Layer_1" xmlns="http://www.w3.org/2000/svg" xmlns:xlink="http://www.w3.org/1999/xlink" x="0px" y="0px"
	 viewBox="0 0 1200 400" style="enable-background:new 0 0 1200 400;" xml:space="preserve">
<style type="text/css">
	.st0{fill:none;}
	.st1{fill:#D1D3D4;}
	.st2{fill:#0C1428;}
	.st3{fill:#FFFFFF;stroke:#000000;stroke-miterlimit:10;}
	.st4{fill:#B0B1B2;}
	.st5{fill:#DCE0E0;}
	.st6{fill:none;stroke:#51868E;stroke-width:3;stroke-miterlimit:10;}
	.st7{fill:#7F969F;}
	.st8{fill:#1ABC9C;}
	.st9{fill:#FFFFFF;}
	.st10{fill:#BDC3C7;}
	.st11{fill:#464646;}
	.st12{fill:#ECF0F1;}
	.st13{fill:url(#SVGID_1_);}
	.st14{fill:#51868E;}
	.st15{fill:#34495E;}
	.st16{fill:#FFFFFF;stroke:#1ABC9C;stroke-width:1.5;stroke-miterlimit:10;}
</style>
<rect class="st0" width="400" height="400"/>
<rect x="400" class="st0" width="400" height="400"/>
<rect x="800" class="st0" width="400" height="400"/>
<g>
	<path class="st1" d="M61.1,230.3v14.1c0,6.2,5,11.1,11.1,11.1h203.5c6.2,0,11.1-5,11.1-11.1v-14.1H61.1z"/>
	<path class="st2" d="M286.9,239.9V121.1c0-6.2-5-11.1-11.1-11.1H72.3c-6.2,0-11.1,5-11.1,11.1v118.8H286.9z"/>
	<rect x="71.9" y="119.4" class="st3" width="204" height="111"/>
	<path class="st4" d="M215.4,287.3c-3.7-2.2-15.9-9.1-15.8-19.8c0-3,0-11.9,0-11.9h-51.2c0,0,0,9,0,11.9
		c0.1,10.8-12.1,17.6-15.8,19.8c-1.6,1-1.2,2.7-1.2,2.7h85C216.5,290,217,288.3,215.4,287.3z"/>
	<g>
		<rect x="72.3" y="131" class="st5" width="203.4" height="54.7"/>
		<polyline class="st6" points="226.1,169 233.8,159.8 226.1,150.6 		"/>
		<polyline class="st6" points="124.1,169 116.3,159.8 124.1,150.6 		"/>
		<path class="st7" d="M174,135.5c-18.5,0-33.5,15-33.5,33.5c0,6.1,1.6,11.8,4.5,16.7h5.3C147,181,145,175.2,145,169
			c0-1.4,0.1-2.7,0.3-4c0.3,1.1,1.1,2.5,2.3,2.6c1.4,0.2,2.3,1.5,2.3,2.2s1.7,1.7,1.9,2.8s1.5,0.7,1.5,0.7s-1,3.4-1,4.2
			s2.2,5.7,4.2,7.9c0,0.1,0.1,0.1,0.1,0.2h12.9c0.3-1.4,0.8-3.3,1.3-4.4c0.7-1.5-1.3-1.9-3-2.2s-3-2.2-3-3.7s-2.7-1.7-3.2-2.8
			s-2.7-1.5-2.7-1.5s-1.9-0.8-2.6-1.2c-0.8-0.3-2.8,2.6-2.8,2.6s-1.2-0.8-1.9-1.1s-0.3-2.2-0.5-2.9s-1-1.2-1-2s0.3-1.5-0.2-1.5
			s-1,1.5-1.9,1.5c-0.8,0-0.2-1.2,0-2.9s2.4-3.4,2.4-3.4s1.7,1.2,1.7,1.5s1,0.8,1,0s-1-2.7,0.5-3.2s2.8-4.2,2.8-4.2l4.1-1.9l1-1.5
			c0,0,2,0,2.9,0c0.8,0,0-1.5,0-1.5s-1.3-2.1-2.4-2.9c-1-0.8-3.7-0.8-3.7-0.8s-0.8,3.4-2.1,3.7c-1.1,0.3-1.7-0.9-1.9-1.8
			c0.9-0.9,2-1.7,3-2.4c0.2,0,0.3,0,0.5,0.1c1.2,0.3,2.7,0,2.7,0s1.7-0.3,2.5-1.6s1.3-1.6,1.3-1.6H163c1.3-0.5,2.6-1,4-1.3
			c0.2,0.3,0.3,0.7,0.3,1.3c0.2,3.2,4.4,4.7,5.5,4.1c1.2-0.7-1-1.8,1.4-3c2.1-1.1,3-1.9,4.1-2.9c3,0.4,5.8,1.3,8.4,2.6
			c-0.5,0.4-1,0.9-1.6,1.1c-1.2,0.5-1.8,0.2-1.4,0.9c0.4,0.7,1.3,1.4,1.9,1.1c0.6-0.2,1.1,0.1,1.3,0.5s0.7,1.2,1.2,0.8
			s0.9-1.1,0.8-1.5c-0.1-0.4-0.7-0.8,0-1.6c0.1-0.1,0.1-0.1,0.2-0.2c0.1,0.1,0.2,0.1,0.3,0.2c-0.2,0.1-0.3,0.2,0,0.5
			c0.6,0.5,2.1,1.1,2.1,1.1s0,0.9-1.1,1.4s-1.9,1-3.2,0.7s-1.2-0.4-1.4-1.1c-0.2-0.6-0.5,0.1-0.5,0.5s-0.1,0.5-0.8,1
			s-1.3,1.1-1.9,1.4c-0.6,0.2-2.5,0.1-1.8,0.7c0.7,0.5,1.4,0.2,1.2,1.1c-0.2,0.9-0.4,1.3-1.6,1.2c-1.1-0.2-1.9,1-1.8,1.6
			c0.1,0.6,0.1,1.6,0.9,1.6c0.6,0,0.8,0.3,0.9,0.4c0-0.1,0.1-0.2,0.7-0.2c1,0,1.9-0.5,1.9-1.2c0.1-0.6,0.4-1.6,1-1.9
			c0.6-0.3,0.8-0.4,1.5-0.3c0.8,0,1-0.4,1.5-0.2c0.5,0.3,2,1.4,2.3,1.7c0.3,0.4,0.7,1,0.4,1.3s0.5-0.5,0.5-0.5v-0.6l0.4,0.1
			c0,0-2.1-1.4-2.4-1.9c-0.3-0.4-0.7-0.8-0.4-0.9c0.3-0.1,0.7,0.3,1.1,0.6c0.3,0.3,1.7,1,2,1.3s0.3,0.8,0.7,1.2
			c0.5,0.4,0.4,1.4,0.8,1.4c0.4,0,0.5-0.6,0.7-0.6s-1.3-1.2-0.1-1.2s1.6,1.4,2,1.8c0.4,0.3,0.8,0.5,2.1,0.7c1.3,0.1,1.1,1.4,0.7,1.7
			c-0.4,0.3-2.1,0.8-2.8,0.7s-2.4-1.3-2.7-0.8c-0.3,0.4,0,1.3-0.8,0.9c-0.8-0.4-1.8-1-2.8-1.3s-1.3-0.3-1.1-0.8s1.6-1.2,0-1.3
			c-1.7,0-4,0.2-4.9,0.5c-0.9,0.4-1.9,0.3-1.9,0.3l-0.6,0.3c-2.9,2.2-3.9,5.1-3.9,6.6s-0.5,3.4,0,5.6c0.5,2.2,1,3.2,2.7,4.1
			c1.7,0.8,5.4,0.7,7.4,0.8c2,0.2,2.2-1,2.2,1.5s0.7,4.6,1,6.4c0.3,1.6,0.2,1.5,0.1,3.3h13.4c2.8-4.9,4.5-10.6,4.5-16.7
			C207.5,150.5,192.5,135.5,174,135.5z M200.6,166c0,0,1.1,2.1,1.2,2.7c0.2,0.5,0,1.3,0.4,1.2c0.1,0,0.4-0.2,0.8-0.5
			c0,0.5,0,1-0.1,1.5c-0.3,0.1-0.6,0.1-0.7,0c-1.7-2.2-3.3-5.5-4-7.4c-1-2.9-0.4-2.3-0.1-1.6C198.2,161.7,199.2,162.1,200.6,166z"/>
	</g>
	<rect x="122.8" y="188.9" class="st8" width="102.4" height="38.8"/>
	<path class="st9" d="M192.4,209.7c0,3-0.4,6-0.4,6s-0.4,2.5-1.5,3.6c-1.4,1.5-3,1.5-3.7,1.5c-5.2,0.4-12.9,0.4-12.9,0.4
		s-9.6-0.1-12.5-0.4c-0.8-0.1-2.7-0.1-4.1-1.6c-1.1-1.1-1.5-3.6-1.5-3.6s-0.4-3-0.4-6v-2.8c0-2.9,0.4-5.9,0.4-5.9s0.4-2.5,1.5-3.6
		c1.4-1.5,3-1.5,3.7-1.5c5.2-0.4,12.9-0.4,12.9-0.4s7.7,0,12.9,0.4c0.7,0.1,2.3,0.1,3.7,1.5c1.1,1.1,1.5,3.6,1.5,3.6s0.4,3,0.4,6
		L192.4,209.7L192.4,209.7z M170.2,213.1l9.9-5.2l-9.9-5.2V213.1z"/>
	<path class="st10" d="M365.9,279.9c0,5.6-4.5,10.1-10.1,10.1h-95.1c-5.6,0-10.1-4.5-10.1-10.1V141.1c0-5.6,4.5-10.1,10.1-10.1h95.1
		c5.6,0,10.1,4.5,10.1,10.1V279.9z"/>
	<path class="st11" d="M314.1,280.9c0,1.9-1.5,3.4-3.4,3.4h-5c-1.9,0-3.4-1.5-3.4-3.4v-5c0-1.9,1.5-3.4,3.4-3.4h5
		c1.9,0,3.4,1.5,3.4,3.4V280.9z"/>
	<rect x="257.4" y="143.6" class="st9" width="101.7" height="123.8"/>
	<g>
		<g>
			<rect x="271.1" y="251.9" class="st10" width="21.5" height="2.1"/>
			<rect x="271.1" y="255.5" class="st10" width="21.5" height="2.1"/>
			<rect x="271.1" y="259.1" class="st10" width="11" height="2.1"/>
			<rect x="271.1" y="228.3" class="st10" width="21.5" height="20.7"/>
		</g>
		<g>
			<rect x="297.5" y="251.9" class="st10" width="21.5" height="2.1"/>
			<rect x="297.5" y="255.5" class="st10" width="21.5" height="2.1"/>
			<rect x="297.5" y="259.1" class="st10" width="11" height="2.1"/>
			<rect x="297.5" y="228.3" class="st10" width="21.5" height="20.7"/>
		</g>
		<g>
			<rect x="323.9" y="251.9" class="st10" width="21.5" height="2.1"/>
			<rect x="323.9" y="255.5" class="st10" width="21.5" height="2.1"/>
			<rect x="323.9" y="259.1" class="st10" width="11" height="2.1"/>
			<rect x="323.9" y="228.3" class="st10" width="21.5" height="20.7"/>
		</g>
	</g>
	<g>
		<rect x="257.4" y="149.2" class="st5" width="101.7" height="27.3"/>
		<polyline class="st6" points="334.3,168.2 338.1,163.6 334.3,159 		"/>
		<polyline class="st6" points="283.3,168.2 279.4,163.6 283.3,159 		"/>
		<path class="st7" d="M308.2,151.4c-9.2,0-16.7,7.5-16.7,16.7c0,3,0.8,5.9,2.2,8.3h2.7c-1.7-2.4-2.6-5.2-2.6-8.3c0-0.7,0-1.3,0.1-2
			c0.2,0.5,0.6,1.2,1.1,1.3c0.7,0.1,1.1,0.8,1.1,1.1s0.8,0.8,0.9,1.4c0.1,0.6,0.8,0.4,0.8,0.4s-0.5,1.7-0.5,2.1c0,0.4,1.1,2.9,2.1,4
			c0,0,0,0.1,0.1,0.1h6.4c0.1-0.7,0.4-1.7,0.7-2.2c0.3-0.8-0.7-0.9-1.5-1.1c-0.8-0.2-1.5-1.1-1.5-1.9c0-0.8-1.4-0.8-1.6-1.4
			c-0.3-0.5-1.3-0.7-1.3-0.7s-0.9-0.4-1.3-0.6c-0.4-0.2-1.4,1.3-1.4,1.3s-0.6-0.4-0.9-0.6c-0.3-0.2-0.2-1.1-0.3-1.4
			c-0.1-0.3-0.5-0.6-0.5-1s0.2-0.8-0.1-0.8c-0.3,0-0.5,0.8-0.9,0.8s-0.1-0.6,0-1.4c0.1-0.8,1.2-1.7,1.2-1.7s0.8,0.6,0.8,0.8
			s0.5,0.4,0.5,0s-0.5-1.3,0.3-1.6s1.4-2.1,1.4-2.1l2.1-0.9l0.5-0.8c0,0,1,0,1.4,0s0-0.7,0-0.7s-0.7-1-1.2-1.5
			c-0.5-0.4-1.9-0.4-1.9-0.4s-0.4,1.7-1.1,1.8c-0.5,0.1-0.9-0.4-0.9-0.9c0.5-0.4,1-0.8,1.5-1.2c0.1,0,0.2,0,0.2,0
			c0.6,0.2,1.4,0,1.4,0s0.8-0.2,1.3-0.8c0.4-0.6,0.7-0.8,0.7-0.8h-0.7c0.6-0.3,1.3-0.5,2-0.7c0.1,0.2,0.1,0.4,0.2,0.7
			c0.1,1.6,2.2,2.4,2.8,2c0.6-0.3-0.5-0.9,0.7-1.5c1.1-0.5,1.5-1,2-1.4c1.5,0.2,2.9,0.7,4.2,1.3c-0.3,0.2-0.5,0.4-0.8,0.6
			c-0.6,0.2-0.9,0.1-0.7,0.5c0.2,0.4,0.6,0.7,0.9,0.6c0.3-0.1,0.6,0.1,0.7,0.3s0.4,0.6,0.6,0.4c0.2-0.2,0.4-0.5,0.4-0.8
			c0-0.2-0.3-0.4,0-0.8l0.1-0.1c0.1,0,0.1,0.1,0.2,0.1c-0.1,0.1-0.2,0.1,0,0.3c0.3,0.3,1.1,0.5,1.1,0.5s0,0.4-0.5,0.7
			c-0.6,0.3-0.9,0.5-1.6,0.4s-0.6-0.2-0.7-0.5s-0.3,0-0.3,0.2s0,0.3-0.4,0.5s-0.6,0.6-0.9,0.7c-0.3,0.1-1.3,0.1-0.9,0.3
			c0.4,0.3,0.7,0.1,0.6,0.6s-0.2,0.7-0.8,0.6c-0.6-0.1-1,0.5-0.9,0.8s0.1,0.8,0.5,0.8c0.3,0,0.4,0.1,0.4,0.2c0,0,0-0.1,0.4-0.1
			c0.5,0,0.9-0.3,1-0.6c0-0.3,0.2-0.8,0.5-1c0.3-0.1,0.4-0.2,0.8-0.2s0.5-0.2,0.7-0.1c0.2,0.1,1,0.7,1.1,0.9s0.3,0.5,0.2,0.7
			c-0.1,0.2,0.3-0.3,0.3-0.3V161h0.2c0,0-1.1-0.7-1.2-0.9c-0.2-0.2-0.3-0.4-0.2-0.4c0.1,0,0.4,0.1,0.5,0.3c0.2,0.2,0.8,0.5,1,0.6
			s0.1,0.4,0.4,0.6c0.2,0.2,0.2,0.7,0.4,0.7c0.2,0,0.2-0.3,0.3-0.3c0.1,0-0.6-0.6,0-0.6s0.8,0.7,1,0.9s0.4,0.3,1,0.3
			c0.7,0.1,0.5,0.7,0.4,0.9c-0.2,0.2-1.1,0.4-1.4,0.4c-0.4-0.1-1.2-0.6-1.3-0.4c-0.1,0.2,0,0.7-0.4,0.4c-0.4-0.2-0.9-0.5-1.4-0.7
			c-0.5-0.1-0.7-0.2-0.6-0.4s0.8-0.6,0-0.6s-2,0.1-2.5,0.3s-0.9,0.1-0.9,0.1l-0.3,0.1c-1.4,1.1-1.9,2.5-1.9,3.3s-0.3,1.7,0,2.8
			s0.5,1.6,1.4,2c0.8,0.4,2.7,0.3,3.7,0.4c1,0.1,1.1-0.5,1.1,0.8s0.3,2.3,0.5,3.2c0.1,0.8,0.1,0.7,0,1.7h6.7
			c1.4-2.5,2.2-5.3,2.2-8.3C325,158.9,317.5,151.4,308.2,151.4z M321.5,166.7c0,0,0.5,1.1,0.6,1.3c0.1,0.3,0,0.7,0.2,0.6
			c0.1,0,0.2-0.1,0.4-0.2c0,0.2,0,0.5,0,0.7c-0.2,0-0.3,0.1-0.4,0c-0.9-1.1-1.6-2.8-2-3.7c-0.5-1.4-0.2-1.2,0-0.8
			C320.3,164.5,320.9,164.7,321.5,166.7z"/>
	</g>
	<g>
		<rect x="260.4" y="187.4" class="st8" width="95.8" height="36.3"/>
		<path class="st9" d="M325.5,206.8c0,2.8-0.3,5.6-0.3,5.6s-0.3,2.4-1.4,3.4c-1.3,1.4-2.8,1.4-3.4,1.4c-4.8,0.3-12.1,0.3-12.1,0.3
			s-9-0.1-11.7-0.3c-0.8-0.1-2.5-0.1-3.8-1.5c-1-1-1.4-3.4-1.4-3.4s-0.3-2.8-0.3-5.6v-2.6c0-2.8,0.3-5.5,0.3-5.5s0.3-2.4,1.4-3.4
			c1.3-1.4,2.8-1.4,3.4-1.4c4.8-0.3,12.1-0.3,12.1-0.3s7.2,0,12.1,0.3c0.7,0.1,2.1,0.1,3.4,1.4c1,1,1.4,3.4,1.4,3.4s0.3,2.8,0.3,5.6
			V206.8z M304.7,210l9.3-4.8l-9.3-4.9V210z"/>
	</g>
	<g>
		<path class="st12" d="M88.2,284.1c0,3.3-2.7,5.9-5.9,5.9H40c-3.3,0-5.9-2.7-5.9-5.9v-84c0-3.3,2.7-5.9,5.9-5.9h42.3
			c3.3,0,5.9,2.7,5.9,5.9C88.2,200.1,88.2,284.1,88.2,284.1z"/>
		<rect x="38.3" y="201.7" class="st8" width="45.7" height="75.1"/>
		<path class="st11" d="M64.5,284.5c0,1.1-0.9,1.9-1.9,1.9h-2.9c-1.1,0-1.9-0.9-1.9-1.9v-2.9c0-1.1,0.9-1.9,1.9-1.9h2.9
			c1.1,0,1.9,0.9,1.9,1.9V284.5z"/>
		<path class="st9" d="M75.9,240.4c0,2.4-0.3,4.8-0.3,4.8s-0.3,2-1.2,2.9c-1.1,1.2-2.4,1.2-2.9,1.2c-4.1,0.3-10.3,0.3-10.3,0.3
			s-7.7-0.1-10-0.3c-0.6-0.1-2.1-0.1-3.2-1.3c-0.9-0.9-1.2-2.9-1.2-2.9s-0.3-2.4-0.3-4.8v-2.2c0-2.4,0.3-4.7,0.3-4.7s0.3-2,1.2-2.9
			c1.1-1.2,2.4-1.2,2.9-1.2C55,229,61.2,229,61.2,229s6.2,0,10.3,0.3c0.6,0.1,1.8,0.1,2.9,1.2c0.9,0.9,1.2,2.9,1.2,2.9
			s0.3,2.4,0.3,4.8V240.4z M58.1,243.1l8-4.1l-8-4.2V243.1z"/>
	</g>
</g>
<g>
	<g>
		<g>
			<g>
				
					<linearGradient id="SVGID_1_" gradientUnits="userSpaceOnUse" x1="496.8608" y1="1470.4081" x2="703.0809" y2="1264.1879" gradientTransform="matrix(1 0 0 -1 0 1597.8)">
					<stop  offset="0" style="stop-color:#FFFFFF"/>
					<stop  offset="1" style="stop-color:#DCDDDE"/>
				</linearGradient>
				<path class="st13" d="M716.4,268.1V145.5c0-6.3-5.1-11.5-11.5-11.5H495c-6.3,0-11.5,5.1-11.5,11.5V268l0,0l-31,14.6
					c0,6.3,2,11.5,8.4,11.5h278.2c6.3,0,8.4-5.1,8.4-11.5L716.4,268.1z"/>
				<path class="st2" d="M716.4,268.1V145.5c0-6.3-5.1-11.5-11.5-11.5H495c-6.3,0-11.5,5.1-11.5,11.5V268l0,0h232.9V268.1z"/>
				<polygon class="st1" points="747.4,282.6 716.4,268.1 483.5,268.1 452.5,282.6 				"/>
			</g>
		</g>
	</g>
	<rect x="495" y="143.4" class="st3" width="210" height="115"/>
	<g>
		<path class="st9" d="M705.8,238.8c-0.3,1.4-1.7,2.3-3.2,2l-55.8-12.1c-1.4-0.3-2.3-1.7-2-3.2l8.7-40c0.3-1.4,1.7-2.3,3.2-2
			l55.8,12.1c1.4,0.3,2.3,1.7,2,3.2L705.8,238.8z"/>
		<g>
			<path class="st7" d="M713.8,189.8L658,177.7c-4.6-1-9.2,2-10.2,6.6l-8.7,40c-1,4.6,1.9,9.2,6.6,10.2l55.8,12.1
				c4.6,1,9.2-1.9,10.2-6.6l8.7-40C721.4,195.4,718.4,190.8,713.8,189.8z M705.8,238.8c-0.3,1.4-1.7,2.3-3.2,2l-55.8-12.1
				c-1.4-0.3-2.3-1.7-2-3.2l8.7-40c0.3-1.4,1.7-2.3,3.2-2l55.8,12.1c1.4,0.3,2.3,1.7,2,3.2L705.8,238.8z"/>
			<path class="st7" d="M660.7,199.6c0.4-2,0.8-3.8,1.1-5.5h0.1c0.3,1.6,0.8,3.4,1.2,4.9l1.6,5.4l3,0.6l2.7-12.5l-2.6-0.6l-0.8,3.6
				c-0.4,1.9-0.7,3.6-0.9,5.3l0,0c-0.3-1.5-0.7-3.3-1.1-4.7l-1.6-5.2l-3.3-0.7l-2.7,12.5l2.6,0.6L660.7,199.6z"/>
			<polygon class="st7" points="674,200.9 678.6,201.9 679.1,199.6 674.5,198.6 675.1,196 680,197.1 680.5,194.7 672.8,193.1 
				670.1,205.6 678,207.3 678.5,205 673.4,203.9 			"/>
			<path class="st7" d="M687.6,203.8c0.6-1.2,1-2.3,1.6-3.7l0,0c-0.2,1.5-0.2,2.7-0.2,4l-0.1,5.6l3.1,0.7l5.9-11.8L695,198l-2.1,4.9
				c-0.6,1.4-1.2,2.9-1.7,4.2l0,0c0.1-1.4,0.2-2.8,0.2-4.3l0.1-5.5l-3-0.7l-2.2,4.9c-0.7,1.5-1.3,2.9-1.8,4.2l0,0
				c0.1-1.3,0.2-3,0.2-4.5l0.2-5.4l-3-0.7l0.3,13.2l3.1,0.7L687.6,203.8z"/>
			<path class="st7" d="M702.9,204.9c-1.5-1-2.1-1.5-1.9-2.3c0.1-0.6,0.9-1.1,2.1-0.8c1.2,0.3,2,0.8,2.5,1.2l1.1-2.1
				c-0.7-0.5-1.6-1-3.1-1.3c-2.9-0.6-5.1,0.6-5.5,2.7c-0.4,1.8,0.7,3.3,2.6,4.5c1.4,0.8,1.9,1.4,1.7,2.2c-0.2,0.8-1,1.2-2.3,0.9
				c-1.2-0.3-2.3-0.9-3-1.5l-1.1,2.2c0.6,0.5,1.9,1.2,3.4,1.6c3.4,0.7,5.4-0.7,5.9-2.8C705.7,207.6,705,206.2,702.9,204.9z"/>
			
				<rect x="663.6" y="202.3" transform="matrix(0.212 -0.9773 0.9773 0.212 316.7759 818.007)" class="st7" width="4" height="20.6"/>
			
				<rect x="662.2" y="208.9" transform="matrix(0.212 -0.9773 0.9773 0.212 309.1147 821.8442)" class="st7" width="4" height="20.6"/>
			
				<rect x="660.7" y="215.5" transform="matrix(0.212 -0.9773 0.9773 0.212 301.5659 825.6252)" class="st7" width="4" height="20.6"/>
			
				<rect x="690.3" y="208.1" transform="matrix(0.212 -0.9773 0.9773 0.212 332.0735 848.6727)" class="st7" width="4" height="20.6"/>
			
				<rect x="688.9" y="214.7" transform="matrix(0.212 -0.9773 0.9773 0.212 324.5247 852.4537)" class="st7" width="4" height="20.6"/>
			
				<rect x="683.9" y="224.1" transform="matrix(0.212 -0.9773 0.9773 0.212 314.9332 852.1779)" class="st7" width="4" height="13.4"/>
		</g>
	</g>
	<g>
		<polygon class="st9" points="617.6,207.2 616.4,207.4 612.1,213.1 618.2,212.5 		"/>
		<polygon class="st9" points="586,196.8 580,194.2 572.4,196.7 578.4,199.4 		"/>
		<polygon class="st9" points="614,187.4 612.6,183.2 606.1,185.4 612,188.1 		"/>
		<polygon class="st9" points="589,210.1 581,210.9 576.8,216.6 584.7,215.8 		"/>
		<polygon class="st9" points="602.8,191.2 596.8,188.5 589.3,191.1 595.2,193.7 		"/>
		<polygon class="st9" points="606.6,208.3 598.7,209.1 594.4,214.8 602.4,214 		"/>
		<path class="st9" d="M567.3,245.3l53.6-5.4l-2.4-23.5l-53.6,5.4L567.3,245.3z M592.7,222.9c4.4-0.4,8.4,2.8,8.8,7.2
			s-2.8,8.4-7.2,8.8c-4.4,0.4-8.4-2.8-8.8-7.2C585,227.3,588.2,223.4,592.7,222.9z"/>
		<polygon class="st9" points="598.3,230.5 594.4,228.4 590.5,226.3 591,231.2 591.5,236.1 594.9,233.3 		"/>
		<polygon class="st9" points="563.2,199.8 561.4,200.4 562.8,204.6 569.1,202.5 		"/>
		<polygon class="st9" points="564.6,217.8 567,217.6 571.3,211.9 564,212.6 		"/>
		<path class="st8" d="M594.3,239c4.4-0.4,7.7-4.4,7.2-8.8c-0.4-4.4-4.4-7.7-8.8-7.2c-4.4,0.4-7.7,4.4-7.2,8.8
			C585.9,236.2,589.8,239.4,594.3,239z M591,231.2l-0.5-4.9l3.9,2.1l4,2.1l-3.4,2.8l-3.4,2.8L591,231.2z"/>
		<path class="st8" d="M622.4,201.5l-50.9,5.1l48.9-16.2l-4.6-13.7l-61.2,20.6l3.8,12.3l0.9,8.8l0,0l3.3,32.7l64.1-6.4l-3.3-32.7
			l0,0L622.4,201.5z M612.6,183.2l1.4,4.2l-2,0.7l-6-2.6L612.6,183.2z M596.8,188.5l6,2.6l-7.6,2.5l-6-2.6L596.8,188.5z M580,194.2
			l6,2.6l-7.6,2.5l-6-2.6L580,194.2z M616.4,207.4l1.3-0.1l0.5,5.2l-6.1,0.6L616.4,207.4z M598.7,209.1l7.9-0.8l-4.3,5.7l-7.9,0.8
			L598.7,209.1z M581,210.9l7.9-0.8l-4.3,5.7l-7.9,0.8L581,210.9z M561.4,200.4l1.8-0.6l6,2.6l-6.4,2.1L561.4,200.4z M571.3,211.9
			l-4.3,5.7l-2.5,0.2l-0.5-5.2L571.3,211.9z M620.9,239.9l-53.6,5.4l-2.4-23.5l53.6-5.4L620.9,239.9z"/>
	</g>
	<g>
		<path class="st14" d="M647.7,112l-16.8,2.6l-3.7-6.9c-0.7-1.2-2.3-2-3.7-1.8l-17.1,2.7c-1.4,0.2-2.7,1.5-2.9,2.8l-1.5,7.7
			l-16.8,2.6c-1.4,0.2-2.3,1.5-2.1,2.9l6.2,39.8c0.2,1.4,1.5,2.3,2.9,2.1l62.5-9.7c1.4-0.2,2.3-1.5,2.1-2.9l-6.2-39.8
			C650.4,112.8,649.1,111.8,647.7,112z"/>
		
			<ellipse transform="matrix(0.9881 -0.1541 0.1541 0.9881 -14.0607 97.2032)" class="st9" cx="620" cy="139.3" rx="15.4" ry="15.4"/>
		
			<rect x="634.2" y="118.1" transform="matrix(0.9881 -0.1541 0.1541 0.9881 -10.9948 100.1583)" class="st9" width="12.8" height="5.8"/>
		
			<ellipse transform="matrix(0.9881 -0.1541 0.1541 0.9881 -14.0607 97.2032)" class="st14" cx="620" cy="139.3" rx="10.5" ry="10.5"/>
	</g>
	<path class="st8" d="M542.2,190.4v-27.3v-6.6v-0.6l-30.8-7.3v1.5h-0.1v31c-2.4-1.4-6.2-0.3-8.8,2.6c-3,3.3-3.5,7.6-1.2,9.7
		c2.3,2.1,6.6,1.2,9.6-2.1c2.1-2.3,3-5.1,2.5-7.3v-27.8l26.8,6.4v24.8c-2.4-1.4-6.1-0.3-8.8,2.6c-3,3.3-3.5,7.6-1.2,9.7
		c2.3,2.1,6.6,1.2,9.6-2.1C541.8,195.4,542.6,192.6,542.2,190.4z"/>
</g>
<g>
	<path class="st1" d="M826.8,246.5v21.6c0,9.4,7.7,17.1,17.1,17.1h312.2c9.4,0,17.1-7.7,17.1-17.1v-21.6H826.8z"/>
	<path class="st2" d="M1173.2,261.2V79c0-9.4-7.6-17.1-17.1-17.1H843.9c-9.4,0-17.1,7.7-17.1,17.1v182.3L1173.2,261.2L1173.2,261.2z
		"/>
	<path class="st4" d="M1063.4,334c-5.6-3.4-24.3-13.9-24.2-30.5c0-4.6,0-18.3,0-18.3h-78.5c0,0,0,13.7,0,18.3
		c0.2,16.5-18.5,27-24.2,30.5c-2.5,1.5-1.8,4.1-1.8,4.1h130.5C1065.2,338.1,1065.9,335.5,1063.4,334z"/>
	<rect x="844.3" y="77.2" class="st9" width="311.5" height="168.8"/>
	<g>
		<g>
			<rect x="897.5" y="220.9" class="st15" width="13.1" height="17.4"/>
			<rect x="923.7" y="205.2" class="st15" width="13.1" height="33.1"/>
			<rect x="949.8" y="193.1" class="st15" width="13.1" height="45.1"/>
			<rect x="976" y="204" class="st15" width="13.1" height="34.3"/>
			<rect x="1002.1" y="165.1" class="st15" width="13.1" height="73.2"/>
			<rect x="1028.3" y="178.1" class="st15" width="13.1" height="60.1"/>
			<rect x="1054.4" y="151.1" class="st15" width="13.1" height="87.2"/>
			<rect x="1080.6" y="126.7" class="st15" width="13.1" height="111.6"/>
			<rect x="1106.7" y="101.4" class="st15" width="13.1" height="136.9"/>
		</g>
		<g>
			<rect x="884.9" y="98.1" class="st15" width="53.3" height="5.1"/>
			<rect x="884.9" y="111" class="st8" width="96.4" height="3.1"/>
			<rect x="884.9" y="120.6" class="st8" width="81.9" height="3.1"/>
			<rect x="884.9" y="130.2" class="st8" width="90.8" height="3.1"/>
			<rect x="884.9" y="139.8" class="st8" width="70.7" height="3.1"/>
			<path class="st15" d="M884.9,151.9v9.1h31.2v-9.1H884.9z M910.9,158.1h-20.8v-3.2h20.7L910.9,158.1L910.9,158.1z"/>
		</g>
		<g>
			<path class="st8" d="M883.7,219.6c-0.5,0-0.9-0.2-1.2-0.6c-0.4-0.7-0.2-1.5,0.4-1.9l74.5-48.3c0.4-0.3,1-0.3,1.5,0l22.3,12.5
				l27.4-42.9c0.2-0.3,0.6-0.6,0.9-0.6c0.4-0.1,0.8,0,1.1,0.3l23.5,18l77.3-66.6c0.6-0.5,1.5-0.4,2,0.1c0.5,0.6,0.4,1.5-0.1,2
				l-78.1,67.4c-0.5,0.4-1.2,0.5-1.8,0l-23.2-17.8L982.9,184c-0.4,0.6-1.2,0.8-1.9,0.5l-22.7-12.7l-73.8,47.8
				C884.2,219.5,884,219.6,883.7,219.6L883.7,219.6z"/>
		</g>
		<circle class="st16" cx="885.7" cy="217.6" r="5.5"/>
		<circle class="st16" cx="957.4" cy="170.5" r="5.5"/>
		<circle class="st16" cx="981.5" cy="182.7" r="5.5"/>
		<circle class="st16" cx="1010.1" cy="139.3" r="5.5"/>
		<circle class="st16" cx="1035.2" cy="158.3" r="5.5"/>
		<circle class="st16" cx="1112.3" cy="90.3" r="5.5"/>
	</g>
</g>
</svg>
