<?xml version="1.0" encoding="utf-8"?>
<!-- Generator: Adobe Illustrator 19.2.0, SVG Export Plug-In . SVG Version: 6.00 Build 0)  -->
<svg version="1.1" id="Layer_1" xmlns="http://www.w3.org/2000/svg" xmlns:xlink="http://www.w3.org/1999/xlink" x="0px" y="0px"
	 viewBox="0 0 2807 508" style="enable-background:new 0 0 2807 508;" xml:space="preserve">
<style type="text/css">
	.st0{fill:none;}
	.st1{fill:#FFFFFF;}
	.st2{fill:#2A94D2;}
</style>
<g>
	<path class="st0" d="M1187.3,223.2c-55.4,0-100.5,45.1-100.5,100.5c0,55.4,45.1,100.5,100.5,100.5c55.4,0,100.5-45.1,100.5-100.5
		C1287.8,268.3,1242.7,223.2,1187.3,223.2z M1262,323.7c0,1.8-1,3.6-2.6,4.5l-109.2,63c-0.8,0.5-1.7,0.7-2.6,0.7s-1.5-0.2-2.3-0.7
		c-1.6-0.9-2.3-2.6-2.3-4.5V260.6c0-1.8,0.7-3.6,2.3-4.5c1.6-0.9,3.5-0.9,5,0l109.1,63C1261.1,320.1,1262,321.8,1262,323.7z"/>
	<rect x="1434" y="164" class="st1" width="82" height="344"/>
	<path class="st1" d="M1858.4,207.8c-8.4-9.4-17.3-17.5-26.3-24.1c-9-6.6-18.7-12.2-28.7-16.5c-5.7-2.4-11.4-4.3-16.9-5.7
		c-5.4-1.4-10.7-2.6-15.9-3.5c-5.1-0.9-10-1.6-14.5-2.1c-4.6-0.5-8.8-0.7-12.6-0.7c-23.6,0-44.9,3.7-63.4,11.1
		c-18.5,7.4-34.9,18.3-48.7,32.6l-0.1,0.1c-13.2,14.7-23.5,30.6-30.1,47.5c-6.6,16.8-10.2,35-10.2,54V507h69V301.9
		c2-10.2,4-19.9,7.7-28.9c3.8-9.1,9.1-17.7,15.7-25.7c6.5-7.8,14.3-13.7,23.1-17.6c8.9-3.9,19.5-5.9,31.3-5.9
		c12.7,0,23.8,2.2,32.9,6.5c9,4.3,16.3,10.8,22,19.4c5.7,8.4,10,17.5,12.9,27c2.9,9.6,4.3,19.3,4.3,29V507h75V287.7
		c0-17-2.4-32.4-6.7-45.7C1873.9,228.5,1867.1,217,1858.4,207.8z"/>
	<path class="st1" d="M2033,82h-73v322.7c0,1.5,0,2.9,0.5,4.2c1,12.1,3.4,23.9,7.3,35.1c4.1,11.5,9.9,22.4,17.6,32.4
		c7.8,10.3,18,18.2,30.2,23.1c12,4.8,26.3,7.5,42.5,7.5h4.9l1.8-0.2l0.6-0.8h88.6v-69l-81.3,1.5c-10.6,0-19-1-24.8-2.9
		c-5.1-1.7-8.2-4.2-9.6-7.7c-1.7-4.3-3.1-9-4-13.8c-0.9-4.8-1.4-10.4-1.4-16.6V232h127v-68h-127V82z"/>
	<path class="st1" d="M2357.9,157.6c-7.3,1.7-13.9,4-19.6,6.9c-6.2,2.9-11.7,6-16.3,9.4c-4.5,3.4-8.8,7-12.6,10.8
		c-0.9,0.9-1.8,1.8-2.8,2.8l-1.5,1.4c-0.7,0.7-1,1.4-2,2.1v-79h-68v395h68V339.1c0-4.1,0.3-8.9,0.8-14.2l0.1-0.3
		c0-4.9,0.5-10,1.4-15.3c0.9-5.3,2.3-11,4.1-16.9c2.2-7.6,5.3-15.1,9.1-22.5c3.8-7.3,8.6-14.4,14.3-21c6.1-6.5,13.6-12.2,22.4-16.6
		c8.8-4.4,19.5-7.2,31.9-10.2h21v-68.6l-26.8,1.7C2373.1,155,2365.1,155.9,2357.9,157.6z"/>
	<path class="st1" d="M2794.8,254.3c-8.1-21.4-20.2-39.4-35.9-53.7l-0.1-0.1c-15.9-13.6-32.7-24.6-49.9-32.9
		c-17.2-8.3-35.5-13.9-54.3-16.7l-3.7,0c-0.5,0-0.9-0.2-1.2-0.3l-0.9-0.5H2637c-0.5,0-0.9,0.3-1.3,0.1l-0.9-0.1h-7.2
		c-22.2,0-43.6,3.7-63.7,11.5c-20,7.8-39.2,19.5-57.2,35c-17.5,15.6-31.1,34-40.1,54.9c-9,20.8-13.7,44.4-13.7,70.4v1.4
		c0,24.9,3.8,48.5,11.1,70.1c7.3,21.7,18.5,41.8,33.1,59.7c14.8,18.1,34.2,31.7,57.7,40.5c23.3,8.7,51.3,13.1,83.1,13.1
		c22.6,0,43.4-3.4,61.8-10c18.6-6.7,34.8-17.1,48.1-30.8c13.6-13.6,25-28.3,33.7-43.6c8.7-15.3,15.3-31.7,19.5-48.6
		c0.9-3.8,1.8-7.6,2.5-11.4c0.7-3.8,1.3-7.6,1.8-11.4l0-0.5c0-1.8,0.1-3.4,0.3-5.1c0.2-1.8,0.4-3.6,0.5-5.4c0.5-1.7,0.8-3.5,0.8-5.5
		v-5.6C2807,300.5,2802.8,275.5,2794.8,254.3z M2732.5,323.1c0,22.6-2.6,41.9-7.8,57.4c-5,15.1-12.6,26.7-22.6,34.5
		c-10.2,8-21.7,14.1-34.1,18.1c-12.5,4-26.1,6-40.4,6c-15.2,0-28.5-2-39.6-6c-10.8-3.9-20.1-10-27.4-18.3
		c-7.2-8.5-13.3-17.6-18.2-27c-4.9-9.3-8.5-19-10.7-28.7c-0.5-3.3-1.1-6.5-1.8-9.6c-0.7-2.9-1-5.9-1.5-9c-0.4-3-0.4-6-0.4-8.8V312
		c0-1.5,0-3,0.4-4.6c0.3-1.1,0.5-2.2,0.7-3.4l0.5-2.2l0-0.3c1.8-10.2,5-20.4,9.7-30.2c4.7-9.8,10.9-19.1,18.4-27.5l0.1-0.1
		c7.4-8.7,16.8-15.1,28.1-19.3c11.5-4.2,25.5-6.3,41.6-6.3c17,0,32.3,2.5,45.4,7.4c13,4.9,24,12,32.8,21.2c8.8,9.7,15.5,21,20,33.6
		C2730.2,293.1,2732.5,307.5,2732.5,323.1z"/>
	<path class="st1" d="M972.7,341h-75c-1.9,0-3.5,1.3-3.9,3.1c-4.6,22.5-16.9,42.8-34.6,57.4c-17.9,14.7-40.6,22.8-63.9,22.8
		c-22.7,0-44.6-7.7-62.4-21.8l229.5-129l4.5-2.6c1.6-0.9,2.4-2.9,1.8-4.7c-7.9-24.6-20.5-46.7-37.6-65.7
		c-16.9-18.7-37.1-33.5-60.2-43.7c-23.6-10.5-49.1-15.8-75.6-15.8c-100.7,0-182.7,82-182.7,182.7c0,100.9,81.9,183,182.7,183
		c94.7,0,171-67.8,181.4-161.3c0.1-1.1-0.2-2.2-1-3.1C974.9,341.4,973.8,341,972.7,341z M694.7,323.7c0-55.5,45.1-100.6,100.6-100.6
		c21.1,0,41,6.4,58,18.6l-158.4,88.3C694.7,327.7,694.7,325.7,694.7,323.7z"/>
	<path class="st1" d="M1475.2,38.9c-25.3,0-45.8,20.6-45.8,45.8s20.6,45.8,45.8,45.8c25.3,0,45.8-20.6,45.8-45.8
		S1500.4,38.9,1475.2,38.9z"/>
	<path class="st2" d="M1187.4,140.8c-37.1,0-71.4,11.1-100.4,30.2V39h-82v289h-0.5c2.2,99,83.4,178.6,182.8,178.6
		c100.8,0,182.9-82.1,182.9-182.9C1370.2,222.9,1288.2,140.8,1187.4,140.8z M1287.8,323.7c0,55.4-45.1,100.5-100.5,100.5
		c-55.4,0-100.5-45.1-100.5-100.5c0-55.4,45.1-100.5,100.5-100.5C1242.7,223.2,1287.8,268.3,1287.8,323.7z"/>
	<path class="st2" d="M1145.3,256.1c-1.6,0.9-2.3,2.6-2.3,4.5v126.1c0,1.8,0.7,3.6,2.3,4.5c0.8,0.5,1.6,0.7,2.5,0.7s1.7-0.2,2.5-0.7
		l109.2-63c1.6-0.9,2.6-2.6,2.6-4.5c0-1.8-1-3.6-2.6-4.5l-109.1-63C1148.8,255.2,1146.9,255.2,1145.3,256.1z"/>
	<path class="st1" d="M475,356.5c0,20.2-7.8,39.2-21.9,53.5c-14.1,14.3-33,22.1-53.2,22.1s-39-7.9-53.1-22.1
		c-14.1-14.2-21.8-33.2-21.8-53.5V0h-83v356.5c0,41.7-33.9,75.6-75.5,75.6S91,398.2,91,356.5V0H0v366.8c0,38.2,15.2,73.7,43,100
		c27.3,25.9,63.7,40.2,102.4,40.2h23c41.5,0,81-16.7,109.2-45.8c26.5,29.2,64.8,45.8,105.8,45.8h23c80.5,0,143.6-61.6,143.6-140.2V0
		h-75V356.5z"/>
</g>
</svg>
