<svg style="position: absolute; width: 0; height: 0;" width="0" height="0" version="1.1" xmlns="http://www.w3.org/2000/svg" xmlns:xlink="http://www.w3.org/1999/xlink">
<defs>
<symbol id="icon-getintouch" viewBox="0 0 1335 1024">
	<path class="path1" d="M1172.863 1024h-1010.467c-90.22 0-162.396-76.687-162.396-166.907v-694.696c0-90.22 72.176-162.396 162.396-162.396h1010.467c90.22 0 162.396 72.176 162.396 162.396v694.696c0 90.22-72.176 166.907-162.396 166.907zM162.396 90.22c-40.599 0-72.176 31.577-72.176 72.176v694.696c0 40.599 31.577 76.687 72.176 76.687h1010.467c40.599 0 72.176-36.088 72.176-76.687v-694.696c0-40.599-31.577-72.176-72.176-72.176h-1010.467z"></path>
	<path class="path2" d="M153.374 1019.489c-36.088 0-72.176-13.533-99.242-40.599-31.577-31.577-54.132-76.687-54.132-121.797v-22.555l482.678-338.326 49.621 72.176-442.079 311.26c4.511 13.533 9.022 27.066 22.555 36.088 13.533 13.533 27.066 18.044 45.11 18.044h1014.978c31.577 0 58.643-22.555 67.665-49.621l-451.101-311.26 49.621-72.176 491.7 342.837v22.555c0 90.22-72.176 162.396-162.396 162.396h-1010.467c0-9.022 0-9.022-4.511-9.022z"></path>
	<path class="path3" d="M667.63 721.762l-667.63-536.811v-22.555c0-90.22 72.176-162.396 162.396-162.396h1010.467c90.22 0 162.396 72.176 162.396 162.396v22.555l-667.63 536.811zM94.731 144.352l572.899 460.123 572.899-460.123c-9.022-31.577-36.088-54.132-67.665-54.132h-1010.467c-31.577 0-58.643 22.555-67.665 54.132z"></path>
</symbol>
<symbol id="icon-mousescroll" viewBox="0 0 529 1024">
	<path class="path1" d="M264.258 1024c-145.342 0-264.258-118.916-264.258-264.258v-495.484c0-145.342 118.916-264.258 264.258-264.258s264.258 118.916 264.258 264.258v495.484c0 145.342-118.916 264.258-264.258 264.258zM264.258 33.032c-127.174 0-231.226 104.052-231.226 231.226v495.484c0 127.174 104.052 231.226 231.226 231.226s231.226-104.052 231.226-231.226v-495.484c0-127.174-104.052-231.226-231.226-231.226z"></path>
	<path class="path2" d="M264.258 469.058c-9.91 0-16.516-6.606-16.516-16.516v-165.161c0-9.91 6.606-16.516 16.516-16.516s16.516 6.606 16.516 16.516v165.161c0 9.91-6.606 16.516-16.516 16.516z"></path>
</symbol>
<symbol id="icon-linkedin" viewBox="0 0 1071 1024">
	<path class="path1" d="M1071.104 628.736v395.264h-229.376v-368.64c0-92.16-32.768-155.648-116.736-155.648-63.488 0-100.352 43.008-118.784 83.968-6.144 14.336-8.192 34.816-8.192 55.296v385.024h-227.328c0 0 4.096-626.688 0-690.176h229.376v96.256l-2.048 2.048h2.048v-2.048c30.72-47.104 86.016-114.688 206.848-114.688 151.552 2.048 264.192 100.352 264.192 313.344zM129.024 0c-77.824 0-129.024 51.2-129.024 118.784 0 65.536 49.152 118.784 126.976 118.784h2.048c79.872 0 129.024-53.248 129.024-118.784-2.048-67.584-49.152-118.784-129.024-118.784zM14.336 1024h229.376v-690.176h-229.376v690.176z"></path>
</symbol>
<symbol id="icon-location" viewBox="0 0 985 1024">
	<path class="path1" d="M479.232 790.528c4.096 4.096 8.192 6.144 14.336 6.144s10.24-2.048 14.336-6.144c6.144-8.192 161.792-184.32 245.76-378.88 18.432-38.912 28.672-79.872 28.672-122.88 0-157.696-129.024-286.72-288.768-286.72-161.792-2.048-290.816 126.976-290.816 284.672 0 43.008 10.24 83.968 26.624 122.88 86.016 196.608 243.712 372.736 249.856 380.928zM491.52 38.912c139.264 0 251.904 112.64 251.904 249.856 0 36.864-8.192 73.728-24.576 108.544-67.584 155.648-186.368 305.152-225.28 352.256-40.96-49.152-159.744-196.608-227.328-354.304-16.384-32.768-24.576-69.632-24.576-106.496 0-139.264 112.64-249.856 249.856-249.856z"></path>
	<path class="path2" d="M491.52 421.888c75.776 0 137.216-61.44 137.216-137.216s-61.44-137.216-137.216-137.216-137.216 61.44-137.216 137.216c0 75.776 61.44 137.216 137.216 137.216zM491.52 184.32c55.296 0 98.304 45.056 98.304 98.304s-45.056 98.304-98.304 98.304-98.304-45.056-98.304-98.304c0-53.248 45.056-98.304 98.304-98.304z"></path>
	<path class="path3" d="M985.088 999.424l-114.688-436.224c-2.048-6.144-6.144-10.24-12.288-12.288l-94.208-38.912-14.336 34.816 86.016 34.816 100.352 387.072-190.464-94.208c-6.144-2.048-10.24-2.048-16.384 0l-237.568 110.592-237.568-110.592c-6.144-2.048-10.24-2.048-16.384 0l-190.464 94.208 100.352-387.072 86.016-34.816-14.336-34.816-94.208 38.912c-6.144 2.048-10.24 6.144-12.288 12.288l-112.64 436.224c-2.048 8.192 0 14.336 6.144 20.48 6.144 4.096 14.336 6.144 20.48 2.048l219.136-110.592 237.568 110.592c4.096 2.048 10.24 2.048 16.384 0l237.568-110.592 219.136 110.592c2.048 2.048 6.144 2.048 8.192 2.048 4.096 0 8.192-2.048 12.288-4.096 8.192-4.096 10.24-12.288 8.192-20.48z"></path>
</symbol>
<symbol id="icon-phone" viewBox="0 0 1038 1024">
	<path class="path1" d="M1038.336 847.872c-2.048-18.432-14.336-34.816-36.864-51.2l-229.376-157.696c-12.288-8.192-24.576-12.288-38.912-12.288-22.528 0-43.008 10.24-55.296 28.672l-59.392 83.968c-4.096 6.144-6.144 14.336-6.144 22.528-22.528 4.096-88.064 2.048-196.608-106.496-104.448-104.448-153.6-180.224-147.456-229.376 2.048 0 2.048-2.048 2.048-2.048 6.144-2.048 10.24-4.096 14.336-6.144l81.92-61.44c28.672-22.528 34.816-65.536 12.288-96.256l-163.84-223.232c-32.768-43.008-69.632-49.152-108.544-14.336-26.624 22.528-67.584 73.728-86.016 104.448-8.192 18.432-12.288 34.816-10.24 53.248-6.144 24.576-18.432 98.304 2.048 202.752 30.72 139.264 110.592 274.432 239.616 399.36 217.088 210.944 407.552 241.664 501.76 241.664v0c55.296 0 94.208-10.24 112.64-18.432 16.384 0 32.768-4.096 49.152-14.336 30.72-18.432 81.92-61.44 102.4-88.064 16.384-18.432 22.528-36.864 20.48-55.296zM987.136 880.64c-18.432 22.528-65.536 63.488-92.16 77.824-4.096 2.048-8.192 4.096-10.24 4.096-26.624-12.288-71.68-34.816-86.016-53.248-6.144-8.192-18.432-10.24-26.624-2.048-8.192 6.144-10.24 18.432-2.048 26.624 12.288 14.336 34.816 30.72 57.344 43.008-16.384 4.096-40.96 6.144-69.632 6.144v0c-88.064 0-268.288-30.72-475.136-229.376-299.008-284.672-241.664-540.672-235.52-567.296 0-2.048 0-6.144 0-8.192-2.048-10.24 0-20.48 6.144-30.72 14.336-26.624 53.248-75.776 75.776-94.208 10.24-8.192 18.432-12.288 26.624-12.288 2.048 0 12.288 0 26.624 20.48l163.84 223.232c10.24 14.336 8.192 32.768-4.096 43.008l-81.92 61.44c0 0 0 0-2.048 0-20.48-16.384-51.2-40.96-59.392-55.296-6.144-8.192-18.432-12.288-26.624-6.144s-12.288 18.432-6.144 26.624c12.288 18.432 43.008 45.056 61.44 59.392-16.384 63.488 32.768 147.456 157.696 270.336 98.304 98.304 169.984 118.784 212.992 118.784 18.432 0 32.768-4.096 38.912-8.192 6.144-2.048 8.192-8.192 10.24-14.336 0-2.048 0-6.144 0-10.24 0-2.048 0-6.144 0-8.192l57.344-81.92c8.192-12.288 28.672-14.336 40.96-6.144l229.376 157.696c12.288 8.192 20.48 16.384 20.48 24.576 4.096 4.096 0 14.336-8.192 24.576z"></path>
	<path class="path2" d="M497.664 223.232c149.504 45.056 266.24 161.792 313.344 311.296 2.048 8.192 10.24 14.336 18.432 14.336 2.048 0 4.096 0 6.144 0 10.24-4.096 16.384-14.336 12.288-24.576-51.2-161.792-176.128-288.768-339.968-337.92-10.24-4.096-20.48 2.048-24.576 12.288-2.048 10.24 4.096 20.48 14.336 24.576z"></path>
	<path class="path3" d="M524.288 79.872c225.28 53.248 395.264 233.472 436.224 460.8 2.048 10.24 10.24 16.384 18.432 16.384 2.048 0 2.048 0 4.096 0 10.24-2.048 18.432-12.288 16.384-22.528-45.056-243.712-227.328-436.224-466.944-493.568-10.24-2.048-20.48 4.096-22.528 14.336-4.096 12.288 4.096 22.528 14.336 24.576z"></path>
</symbol>
<symbol id="icon-skype" viewBox="0 0 1024 1024">
	<path class="path1" d="M980.992 585.728c4.096-24.576 6.144-49.152 6.144-73.728 0-262.144-212.992-475.136-475.136-475.136-24.576 0-49.152 2.048-73.728 6.144-45.056-26.624-96.256-43.008-151.552-43.008-157.696 0-286.72 129.024-286.72 286.72 0 55.296 16.384 106.496 43.008 151.552-4.096 24.576-6.144 49.152-6.144 73.728 0 262.144 212.992 475.136 475.136 475.136 24.576 0 49.152-2.048 73.728-6.144 43.008 26.624 96.256 43.008 151.552 43.008 157.696 0 286.72-129.024 286.72-286.72 0-55.296-16.384-106.496-43.008-151.552zM737.28 727.040c-20.48 28.672-49.152 51.2-88.064 67.584s-83.968 24.576-137.216 24.576c-63.488 0-114.688-10.24-157.696-32.768-28.672-16.384-53.248-36.864-71.68-63.488s-28.672-53.248-28.672-77.824c0-14.336 6.144-28.672 16.384-38.912 12.288-10.24 26.624-16.384 43.008-16.384 14.336 0 26.624 4.096 36.864 12.288s18.432 20.48 24.576 36.864c8.192 18.432 16.384 34.816 26.624 47.104s22.528 22.528 38.912 30.72 38.912 12.288 67.584 12.288c38.912 0 69.632-8.192 92.16-24.576 24.576-16.384 34.816-36.864 34.816-59.392 0-18.432-6.144-34.816-18.432-47.104s-28.672-20.48-49.152-26.624c-20.48-6.144-47.104-12.288-81.92-20.48-45.056-10.24-83.968-22.528-114.688-34.816-30.72-14.336-55.296-32.768-73.728-55.296s-26.624-53.248-26.624-88.064c0-32.768 10.24-61.44 28.672-88.064s47.104-45.056 83.968-59.392c36.864-14.336 79.872-20.48 129.024-20.48 38.912 0 73.728 4.096 102.4 14.336 28.672 8.192 53.248 20.48 71.68 36.864 18.432 14.336 32.768 30.72 40.96 47.104s14.336 32.768 14.336 49.152c0 14.336-6.144 28.672-16.384 40.96s-24.576 18.432-43.008 18.432c-14.336 0-26.624-4.096-34.816-10.24s-16.384-18.432-24.576-34.816c-12.288-22.528-24.576-38.912-40.96-51.2s-40.96-18.432-77.824-18.432c-32.768 0-59.392 6.144-79.872 20.48s-30.72 28.672-30.72 47.104c0 12.288 4.096 20.48 10.24 28.672s16.384 16.384 28.672 22.528 24.576 10.24 36.864 14.336 32.768 8.192 61.44 16.384c36.864 8.192 69.632 16.384 98.304 26.624s53.248 20.48 75.776 34.816c20.48 14.336 36.864 30.72 49.152 51.2s18.432 47.104 18.432 75.776c-4.096 30.72-14.336 63.488-34.816 92.16z"></path>
</symbol>
<symbol id="icon-email" viewBox="0 0 1032 1024">
	<path class="path1" d="M925.696 415.744l-141.312 96.256v-196.608c0-10.24-8.192-18.432-18.432-18.432h-497.664c-10.24 0-18.432 8.192-18.432 18.432v196.608l-141.312-96.256c-8.192-6.144-20.48-4.096-26.624 4.096s-4.096 20.48 4.096 26.624l358.4 243.712c20.48 14.336 47.104 20.48 73.728 20.48s53.248-6.144 73.728-20.48l358.4-243.712c8.192-6.144 10.24-18.432 4.096-26.624-8.192-8.192-20.48-10.24-28.672-4.096zM569.344 659.456c-28.672 18.432-75.776 18.432-104.448 0l-180.224-122.88c2.048-2.048 2.048-6.144 2.048-10.24v-190.464h458.752v190.464c0 4.096 2.048 6.144 2.048 10.24l-178.176 122.88z"></path>
	<path class="path2" d="M1003.52 342.016l-415.744-319.488c-18.432-14.336-45.056-22.528-71.68-22.528s-53.248 8.192-71.68 22.528l-415.744 319.488c-16.384 12.288-28.672 38.912-28.672 61.44v526.336c0 51.2 43.008 94.208 96.256 94.208h841.728c53.248 0 96.256-43.008 96.256-96.256v-524.288c-2.048-22.528-14.336-49.152-30.72-61.44zM993.28 927.744c0 30.72-26.624 57.344-57.344 57.344h-839.68c-30.72 0-57.344-26.624-57.344-57.344v-524.288c0-10.24 6.144-24.576 14.336-30.72l413.696-319.488c12.288-10.24 30.72-14.336 49.152-14.336s36.864 6.144 49.152 14.336l415.744 319.488c6.144 6.144 14.336 20.48 14.336 30.72v524.288h-2.048z"></path>
	<path class="path3" d="M649.216 411.648h-266.24c-10.24 0-18.432 8.192-18.432 18.432s8.192 18.432 18.432 18.432h268.288c10.24 0 18.432-8.192 18.432-18.432s-8.192-18.432-20.48-18.432z"></path>
	<path class="path4" d="M649.216 489.472h-266.24c-10.24 0-18.432 8.192-18.432 18.432s8.192 18.432 18.432 18.432h268.288c10.24 0 18.432-8.192 18.432-18.432s-8.192-18.432-20.48-18.432z"></path>
</symbol>
<symbol id="methodolgy" viewBox="0 0 683 1024">
	<path class="path1" d="M341.333 0c-187.733 0-341.333 153.6-341.333 341.333 0 92.16 35.84 177.493 100.693 242.347l1.707 1.707c0 0 68.267 51.2 68.267 174.080v37.547h341.333v-37.547c0-121.173 64.853-172.373 68.267-174.080l1.707-1.707c64.853-64.853 100.693-150.187 100.693-242.347 0-187.733-153.6-341.333-341.333-341.333zM556.373 554.667c-10.24 8.533-81.92 69.973-81.92 203.093h-114.347v-295.253l88.747-88.747c6.827-6.827 6.827-18.773 0-27.307-6.827-6.827-18.773-6.827-27.307 0l-80.213 81.92-81.92-81.92c-6.827-6.827-18.773-6.827-27.307 0-6.827 6.827-6.827 18.773 0 27.307l88.747 88.747v295.253h-114.347c0-133.12-71.68-194.56-81.92-203.093-54.613-56.32-87.040-133.12-87.040-213.333 0-167.253 136.533-303.787 303.787-303.787s303.787 136.533 303.787 303.787c0 80.213-32.427 157.013-88.747 213.333z"></path>
	<path class="path2" d="M493.227 834.56h-303.787c-10.24 0-18.773 8.533-18.773 18.773s8.533 18.773 18.773 18.773h303.787c10.24 0 18.773-8.533 18.773-18.773s-8.533-18.773-18.773-18.773z"></path>
	<path class="path3" d="M474.453 909.653h-266.24c-10.24 0-18.773 8.533-18.773 18.773s8.533 18.773 18.773 18.773h39.253c8.533 42.667 47.787 75.093 92.16 75.093 46.080 0 83.627-32.427 92.16-75.093h39.253c10.24 0 18.773-8.533 18.773-18.773 3.413-10.24-5.12-18.773-15.36-18.773zM341.333 986.453c-23.893 0-46.080-15.36-52.907-37.547h107.52c-8.533 20.48-30.72 37.547-54.613 37.547z"></path>
</symbol>
<symbol id="solutions" viewBox="0 0 1024 1024">
	<path class="path1" d="M512 0c-282.548 0-512 229.452-512 512s229.452 512 512 512c282.548 0 512-229.452 512-512s-229.452-512-512-512zM889.363 798.341c-17.067-13.274-60.681-41.719-128.948-64.474 15.17-60.681 24.652-128.948 26.548-202.904h199.111c-3.793 100.504-39.822 193.422-96.711 267.378zM37.926 530.963h199.111c1.896 72.059 9.481 140.326 26.548 202.904-70.163 22.756-111.881 51.2-128.948 64.474-56.889-73.956-92.919-166.874-96.711-267.378zM132.741 227.556c17.067 13.274 58.785 41.719 130.844 66.37-15.17 60.681-24.652 128.948-24.652 201.007h-201.007c3.793-102.4 39.822-193.422 94.815-267.378zM530.963 329.956c75.852-1.896 140.326-11.378 191.526-26.548 15.17 58.785 22.756 121.363 24.652 189.63h-216.178v-163.081zM530.963 292.030v-252.207c75.852 13.274 142.222 102.4 182.044 227.556-49.304 13.274-109.985 22.756-182.044 24.652zM493.037 39.822v252.207c-72.059-1.896-132.741-11.378-182.044-24.652 39.822-127.052 106.193-214.281 182.044-227.556zM493.037 329.956v163.081h-216.178c1.896-66.37 9.481-130.844 24.652-189.63 51.2 15.17 115.674 24.652 191.526 26.548zM276.859 530.963h216.178v164.978c-75.852 1.896-140.326 11.378-191.526 26.548-15.17-58.785-24.652-123.259-24.652-191.526zM493.037 733.867v250.311c-75.852-13.274-142.222-100.504-182.044-225.659 49.304-13.274 109.985-22.756 182.044-24.652zM530.963 984.178v-250.311c72.059 1.896 132.741 11.378 182.044 24.652-39.822 125.156-106.193 212.385-182.044 225.659zM530.963 695.941v-164.978h216.178c-1.896 68.267-9.481 132.741-24.652 191.526-51.2-15.17-115.674-24.652-191.526-26.548zM785.067 493.037c-1.896-72.059-9.481-140.326-24.652-201.007 70.163-24.652 113.778-53.096 130.844-66.37 56.889 73.956 91.022 166.874 94.815 265.481h-201.007zM866.607 197.215c-15.17 11.378-53.096 36.030-115.674 58.785-26.548-85.333-64.474-155.496-113.778-201.007 89.126 24.652 168.77 73.956 229.452 142.222zM386.844 54.993c-47.407 45.511-87.23 113.778-113.778 201.007-62.578-22.756-100.504-47.407-115.674-58.785 60.681-68.267 140.326-117.57 229.452-142.222zM159.289 826.785c15.17-11.378 53.096-36.030 115.674-56.889 26.548 85.333 64.474 155.496 111.881 199.111-89.126-24.652-168.77-73.956-227.556-142.222zM637.156 969.007c47.407-43.615 85.333-113.778 111.881-199.111 62.578 20.859 100.504 45.511 115.674 56.889-58.785 68.267-138.43 117.57-227.556 142.222z"></path>
</symbol>
<symbol id="box" viewBox="0 0 795 1024">
	<path class="path1" d="M257.707 165.547l119.467-105.813v373.76c0 10.24 8.533 18.773 18.773 18.773s18.773-8.533 18.773-18.773v-372.053l119.467 105.813c3.413 3.413 8.533 5.12 11.947 5.12 5.12 0 10.24-1.707 13.653-6.827 6.827-8.533 6.827-20.48-1.707-27.307l-148.48-133.12c-6.827-6.827-17.067-6.827-25.6 0l-150.187 131.413c-8.533 6.827-8.533 18.773-1.707 27.307s18.773 8.533 25.6 1.707z"></path>
	<path class="path2" d="M716.8 384l-197.973-98.987c-8.533-5.12-20.48-1.707-25.6 8.533-5.12 8.533-1.707 20.48 8.533 25.6l197.973 98.987c8.533 5.12 18.773 11.947 25.6 20.48l-300.373 116.053c-10.24 3.413-20.48 11.947-29.013 20.48-8.533-8.533-17.067-17.067-29.013-20.48l-296.96-116.053c8.533-8.533 17.067-15.36 25.6-20.48l197.973-98.987c8.533-5.12 13.653-15.36 8.533-25.6-5.12-8.533-15.36-13.653-25.6-8.533l-197.973 98.987c-44.373 22.187-78.507 78.507-78.507 126.293v283.307c0 49.493 35.84 102.4 81.92 121.173l237.227 95.573c22.187 8.533 49.493 13.653 76.8 13.653s56.32-5.12 76.8-13.653l237.227-95.573c46.080-18.773 81.92-71.68 81.92-121.173v-283.307c3.413-47.787-32.427-104.107-75.093-126.293zM95.573 880.64c-32.427-11.947-58.027-52.907-58.027-87.040v-283.307c0-13.653 3.413-27.307 10.24-40.96 0 0 1.707 1.707 1.707 1.707l305.493 119.467c11.947 5.12 23.893 20.48 23.893 34.133v358.4c0 0 0 1.707 0 1.707-17.067-1.707-32.427-5.12-44.373-10.24l-238.933-93.867zM756.053 795.307c0 34.133-27.307 73.387-58.027 87.040l-237.227 93.867c-11.947 5.12-27.307 8.533-44.373 10.24 0 0 0-1.707 0-1.707v-360.107c0-13.653 10.24-29.013 23.893-34.133l305.493-119.467c0 0 1.707-1.707 1.707-1.707 6.827 13.653 10.24 27.307 10.24 40.96v285.013z"></path>
</symbol>
<symbol id="knowledge" viewBox="0 0 1286 1024">
	<path class="path1" d="M544.768 212.992l350.208 124.928c2.048 0 6.144 2.048 8.192 2.048 4.096 0 8.192 0 10.24-2.048l118.784-61.44c8.192-4.096 14.336-14.336 12.288-22.528 0-10.24-6.144-18.432-16.384-20.48l-348.16-124.928c-6.144-2.048-12.288-2.048-18.432 2.048l-120.832 61.44c-8.192 4.096-14.336 12.288-12.288 22.528 2.048 6.144 8.192 14.336 16.384 18.432zM673.792 155.648l288.768 102.4-61.44 32.768-288.768-102.4 61.44-32.768zM1267.712 405.504l4.096-2.048c2.048-2.048 4.096-2.048 6.144-4.096 0 0 0-2.048 2.048-2.048 2.048-2.048 2.048-4.096 4.096-4.096 0-2.048 0-2.048 2.048-4.096 0-2.048 0-2.048 0-4.096s0-2.048 0-4.096c0 0 0 0 0 0 0-2.048 0-2.048-2.048-4.096 0 0 0-2.048 0-2.048s-2.048-2.048-2.048-2.048c0-2.048-2.048-2.048-2.048-4.096 0 0-2.048-2.048-2.048-2.048-2.048 0-2.048-2.048-4.096-2.048 0 0-2.048 0-2.048-2.048 0 0 0 0-2.048 0-4.096 0-30.72-10.24-30.72-47.104 0-30.72 20.48-47.104 28.672-51.2l6.144-2.048c4.096-2.048 8.192-6.144 10.24-12.288v0c0 0 0-2.048 2.048-2.048 0 0 0 0 0 0 2.048-4.096 2.048-10.24 0-14.336 0-2.048 0-2.048-2.048-2.048-2.048-4.096-6.144-8.192-10.24-10.24 0 0-2.048 0-2.048-2.048v0 0c0 0 0 0 0 0s0 0 0 0l-598.016-217.088c-6.144-2.048-12.288-2.048-18.432 0-20.48 10.24-509.952 256-552.96 278.528l-8.192 4.096c-38.912 22.528-94.208 53.248-94.208 141.312 0 32.768 6.144 55.296 16.384 71.68-12.288 20.48-16.384 45.056-16.384 73.728 0 32.768 6.144 55.296 16.384 71.68-10.24 20.48-16.384 45.056-16.384 73.728 0 86.016 47.104 104.448 86.016 118.784l8.192 4.096c22.528 8.192 442.368 157.696 507.904 180.224 2.048 0 4.096 2.048 6.144 2.048 0 0 2.048 0 2.048 0s0 0 0 0 2.048 0 2.048 0 4.096 0 6.144 0v0 0c4.096 0 6.144 0 10.24-2.048 0 0 0 0 2.048 0l643.072-329.728c8.192-4.096 14.336-14.336 12.288-22.528 0-10.24-8.192-18.432-16.384-20.48-4.096 0-30.72-10.24-30.72-47.104 0-32.768 22.528-47.104 30.72-51.2l4.096-2.048c2.048-2.048 4.096-2.048 6.144-4.096 0 0 0-2.048 2.048-2.048 2.048-2.048 2.048-4.096 4.096-4.096 0-2.048 0-2.048 2.048-4.096 0-2.048 0-2.048 0-4.096s0-2.048 0-4.096c0 0 0 0 0 0 0-2.048 0-2.048-2.048-4.096 0 0 0-2.048 0-2.048s-2.048-2.048-2.048-2.048c0-2.048-2.048-2.048-2.048-4.096 0 0-2.048-2.048-2.048-2.048-2.048 0-2.048-2.048-4.096-2.048 0 0-2.048 0-2.048-2.048 0 0 0 0-2.048 0-4.096 0-30.72-10.24-30.72-47.104-2.048-34.816 18.432-49.152 26.624-53.248zM118.784 327.68l8.192-4.096c36.864-20.48 473.088-239.616 540.672-274.432l534.528 190.464-583.68 305.152c-65.536-22.528-413.696-151.552-460.8-167.936l-8.192-2.048c-22.528-8.192-49.152-18.432-71.68-20.48 12.288-12.288 26.624-18.432 40.96-26.624zM548.864 950.272c-176.128-61.44-421.888-149.504-436.224-155.648l-8.192-4.096c-34.816-12.288-57.344-22.528-57.344-73.728 0-16.384 2.048-28.672 6.144-40.96 10.24 6.144 22.528 10.24 32.768 14.336l8.192 4.096c20.48 8.192 358.4 129.024 477.184 172.032-12.288 16.384-24.576 36.864-24.576 67.584 0 6.144 2.048 10.24 2.048 16.384zM546.816 790.528c0 6.144 0 12.288 2.048 16.384-176.128-63.488-421.888-151.552-436.224-157.696l-8.192-4.096c-14.336-6.144-28.672-10.24-36.864-18.432-2.048-2.048-2.048-4.096-4.096-6.144 0 0-2.048 0-2.048 0-8.192-10.24-12.288-24.576-12.288-49.152 0-16.384 2.048-28.672 6.144-40.96 10.24 6.144 22.528 10.24 32.768 14.336l8.192 4.096c20.48 8.192 358.4 131.072 477.184 174.080-14.336 14.336-26.624 36.864-26.624 67.584zM546.816 647.168c0 6.144 0 10.24 2.048 16.384-176.128-63.488-421.888-153.6-436.224-159.744l-8.192-4.096c-14.336-6.144-28.672-10.24-36.864-18.432-2.048-2.048-2.048-4.096-4.096-6.144 0 0-2.048 0-2.048 0-8.192-10.24-12.288-24.576-12.288-49.152 0-12.288 2.048-20.48 6.144-24.576 12.288-8.192 55.296 6.144 79.872 16.384l8.192 2.048c43.008 16.384 325.632 118.784 430.080 157.696-14.336 16.384-26.624 38.912-26.624 69.632zM618.496 974.848c-8.192-4.096-22.528-16.384-22.528-40.96 0-38.912 32.768-53.248 32.768-53.248s0 0 0 0 0 0 0 0l561.152-288.768c0 4.096 0 8.192 0 12.288 0 28.672 10.24 51.2 24.576 65.536l-595.968 305.152zM618.496 831.488c-8.192-4.096-22.528-16.384-22.528-40.96 0-38.912 32.768-53.248 32.768-53.248s0 0 0 0 0 0 0 0l561.152-290.816c0 4.096 0 8.192 0 12.288 0 30.72 10.24 51.2 24.576 65.536l-595.968 307.2zM618.496 688.128c-8.192-4.096-22.528-16.384-22.528-40.96 0-38.912 32.768-53.248 32.768-53.248s0 0 0 0 0 0 0 0l561.152-292.864c0 4.096 0 8.192 0 12.288 0 30.72 10.24 51.2 24.576 65.536l-595.968 309.248z"></path>
</symbol>
</defs>
</svg>
